# Blender v2.91.0 OBJ File: 'Interaktive Visualisierung(1)MergedMaterials.blend'
# www.blender.org
mtllib 3erHausProto.mtl
o Baumhaus_01_Instance_1_Mesh.020
v 40.311676 2.500001 -3.690558
v 40.311676 5.400001 -3.690558
v 40.311676 2.500002 -8.190558
v 40.311676 5.400002 -8.190557
v 45.311676 2.500001 -8.190559
v 45.311676 5.400001 -8.190558
v 45.311676 2.500000 -3.690559
v 45.311676 5.400000 -3.690558
v 40.311676 5.000002 -8.190557
v 45.311676 5.000001 -8.190558
v 45.311676 5.000000 -3.690558
v 40.311676 5.000001 -3.690558
v 40.311676 5.000001 -4.690558
v 40.311676 2.500001 -4.690558
v 45.311676 2.500000 -4.690559
v 45.311676 5.000000 -4.690558
v 45.311676 5.400001 -4.690558
v 40.311676 5.400001 -4.690558
v 40.311676 2.800001 -3.690558
v 45.311676 2.800000 -3.690559
v 40.311676 2.800001 -4.690558
v 45.311676 2.800001 -4.690559
v 45.311676 2.800001 -8.190559
v 40.311676 2.800002 -8.190558
v 40.561676 5.400001 -3.940558
v 40.561676 5.400002 -7.940558
v 45.061676 5.400001 -7.940558
v 45.061676 5.400001 -3.940558
v 45.061676 5.400001 -4.690558
v 40.561676 5.400001 -4.690558
v 40.561676 5.250001 -3.940558
v 40.561676 5.250002 -7.940558
v 45.061676 5.250001 -7.940558
v 45.061676 5.250000 -3.940558
v 45.061676 5.250000 -4.690558
v 40.561676 5.250001 -4.690558
v 40.591675 5.430001 -4.690558
v 45.031677 5.430000 -4.690558
v 45.031677 5.430000 -3.970558
v 45.031677 5.430001 -7.910559
v 40.591675 5.430002 -7.910558
v 40.591675 5.430001 -3.970558
v 40.591675 5.400001 -4.690558
v 45.031677 5.400001 -4.690558
v 45.031677 5.400001 -3.970558
v 45.031677 5.400001 -7.910559
v 40.591675 5.400002 -7.910558
v 40.591675 5.400001 -3.970558
v 40.281677 5.400001 -3.660558
v 40.281677 5.400002 -8.220558
v 45.341675 5.400001 -8.220558
v 45.341675 5.400000 -3.660558
v 45.341675 5.400001 -4.690558
v 40.281677 5.400001 -4.690558
v 40.281677 5.430001 -3.660558
v 40.281677 5.430002 -8.220558
v 45.341675 5.430001 -8.220558
v 45.341675 5.430000 -3.660558
v 45.341675 5.430000 -4.690558
v 40.281677 5.430001 -4.690558
v 40.311676 4.700002 -8.190558
v 45.311676 4.700001 -8.190558
v 45.311676 4.700000 -4.690558
v 45.311676 3.600001 -8.190558
v 45.311676 3.600000 -4.690558
v 40.311676 3.600002 -8.190558
v 45.311676 3.600001 -6.940559
v 45.311676 4.700001 -6.940558
v 44.061676 3.600001 -8.190558
v 44.061676 4.700001 -8.190558
v 40.711678 3.600001 -3.690558
v 40.311676 3.600001 -4.690558
v 44.311676 4.700001 -4.690558
v 42.811676 4.700001 -4.690558
v 42.811676 2.800001 -4.690558
v 44.311676 2.800001 -4.690559
v 40.311676 3.600001 -3.690558
v 40.711678 2.800001 -4.690558
v 40.711678 5.000001 -4.690558
v 40.711678 2.800001 -3.690558
v 40.711678 5.000001 -3.690558
v 40.311676 4.700001 -4.690558
v 40.311676 4.700001 -3.690558
v 40.711678 4.700001 -3.690558
v 40.711678 4.700001 -4.690558
v 41.561676 3.600002 -8.190558
v 41.561676 4.700002 -8.190558
v 40.311676 4.700002 -6.940558
v 40.311676 3.600002 -6.940558
v 40.711678 2.800001 -3.840559
v 40.411674 5.000002 -8.090558
v 45.211678 5.000001 -8.090558
v 40.411674 5.000001 -4.690558
v 45.211678 5.000000 -4.790558
v 40.411674 2.800001 -4.690558
v 45.211678 2.800001 -4.790559
v 45.211674 2.800001 -8.090559
v 40.411674 2.800002 -8.090558
v 40.411674 4.700002 -8.090558
v 45.211678 4.700001 -8.090559
v 45.211678 4.700000 -4.790558
v 45.211678 3.600001 -8.090559
v 45.211678 3.600000 -4.790559
v 40.411674 3.600002 -8.090558
v 45.211678 3.600001 -6.940559
v 45.211678 4.700001 -6.940558
v 44.061676 3.600001 -8.090558
v 44.061676 4.700001 -8.090558
v 40.411674 3.600001 -4.690558
v 44.311676 4.700001 -4.790558
v 42.811676 4.700001 -4.790558
v 42.811676 2.800001 -4.790559
v 44.311676 2.800001 -4.790559
v 40.711678 2.800001 -4.790558
v 40.711678 5.000001 -4.790558
v 40.411674 4.700001 -4.690558
v 40.711678 4.700001 -4.790558
v 41.561676 3.600002 -8.090558
v 41.561676 4.700002 -8.090558
v 40.411674 4.700002 -6.940558
v 40.411674 3.600002 -6.940558
vt 0.839874 0.459808
vt 0.824585 0.459808
vt 0.824585 0.345154
vt 0.824585 0.281464
vt 0.839874 0.281464
vt 0.727768 0.459808
vt 0.727768 0.281464
vt 0.768539 0.281464
vt 0.768539 0.345154
vt 0.768539 0.459808
vt 0.814392 0.526520
vt 0.814392 0.780853
vt 0.773621 0.780853
vt 0.773621 0.717255
vt 0.773621 0.590118
vt 0.773621 0.526520
vt 0.702286 0.526520
vt 0.717575 0.526520
vt 0.717575 0.590118
vt 0.717575 0.717255
vt 0.717575 0.780853
vt 0.702286 0.780853
vt 0.135269 0.786407
vt 0.135269 0.552002
vt 0.155655 0.552002
vt 0.155655 0.806793
vt 0.135269 0.806793
vt 0.007874 0.552002
vt 0.023163 0.552002
vt 0.023163 0.786407
vt 0.023163 0.806793
vt 0.007874 0.806793
vt 0.365036 0.546906
vt 0.365036 0.781311
vt 0.349747 0.781311
vt 0.349747 0.674286
vt 0.349747 0.597870
vt 0.349747 0.546906
vt 0.738983 0.058838
vt 0.779755 0.058838
vt 0.779755 0.173492
vt 0.779755 0.237183
vt 0.738983 0.237183
vt 0.835800 0.058838
vt 0.851089 0.058838
vt 0.851089 0.237183
vt 0.835800 0.237183
vt 0.835800 0.173492
vt 0.426178 0.531158
vt 0.426178 0.480194
vt 0.426178 0.403763
vt 0.426178 0.296753
vt 0.469498 0.296753
vt 0.477142 0.296753
vt 0.477142 0.531158
vt 0.252930 0.546906
vt 0.293701 0.546906
vt 0.252930 0.597870
vt 0.942261 0.896431
vt 0.942261 0.786880
vt 0.957550 0.786880
vt 0.957550 0.955032
vt 0.942261 0.955032
vt 0.886215 0.955032
vt 0.845444 0.955032
vt 0.845444 0.786880
vt 0.886215 0.786880
vt 0.886215 0.896431
vt 0.886215 0.771133
vt 0.845444 0.771133
vt 0.845444 0.526535
vt 0.886215 0.526535
vt 0.886215 0.585144
vt 0.886215 0.712524
vt 0.942261 0.585144
vt 0.942261 0.526535
vt 0.957550 0.526535
vt 0.957550 0.771133
vt 0.942261 0.771133
vt 0.942261 0.712524
vt 0.891296 0.495209
vt 0.876015 0.495209
vt 0.876015 0.266312
vt 0.891296 0.266312
vt 0.891296 0.312103
vt 0.891296 0.388397
vt 0.533676 0.845490
vt 0.533676 0.960129
vt 0.492905 0.960129
vt 0.492905 0.786880
vt 0.533676 0.786880
vt 0.605011 0.786880
vt 0.605011 0.960129
vt 0.589722 0.960129
vt 0.589722 0.845490
vt 0.589722 0.786880
vt 0.947350 0.266312
vt 0.988113 0.266312
vt 0.988113 0.312103
vt 0.252930 0.526062
vt 0.421097 0.296753
vt 0.421097 0.403763
vt 0.421097 0.480194
vt 0.421097 0.526062
vt 0.860260 0.459808
vt 0.860260 0.510773
vt 0.839874 0.510773
vt 0.712479 0.459808
vt 0.727768 0.510773
vt 0.712479 0.510773
vt 0.416000 0.546906
vt 0.416000 0.781311
vt 0.222366 0.552017
vt 0.222366 0.567299
vt 0.171410 0.567299
vt 0.171410 0.552017
vt 0.063934 0.806793
vt 0.063934 0.786407
vt 0.835800 0.007874
vt 0.851089 0.007874
vt 0.222366 0.623352
vt 0.171410 0.664116
vt 0.252930 0.781311
vt 0.252930 0.674286
vt 0.271805 0.023682
vt 0.255997 0.007874
vt 0.308487 0.007874
vt 0.308487 0.023682
vt 0.271805 0.249908
vt 0.255997 0.265717
vt 0.488358 0.007874
vt 0.472565 0.023682
vt 0.488358 0.265717
vt 0.472565 0.249908
vt 0.308487 0.265717
vt 0.308487 0.249908
vt 0.829681 0.526520
vt 0.829681 0.780853
vt 0.712479 0.281464
vt 0.871475 0.058838
vt 0.871475 0.237183
vt 0.542328 0.237183
vt 0.504105 0.237183
vt 0.504105 0.007874
vt 0.542328 0.007874
vt 0.186218 0.281464
vt 0.237183 0.281464
vt 0.237183 0.536255
vt 0.186218 0.536255
vt 0.681900 0.780853
vt 0.681900 0.526520
vt 0.860260 0.281464
vt 0.871475 0.007874
vt 0.007874 0.536255
vt 0.007874 0.281464
vt 0.707932 0.007874
vt 0.707932 0.237183
vt 0.723694 0.007874
vt 0.738983 0.007874
vt 0.723694 0.058838
vt 0.723694 0.237183
vt 0.222366 0.664116
vt 0.214722 0.664116
vt 0.462799 0.546906
vt 0.462799 0.775803
vt 0.455154 0.775803
vt 0.455154 0.546906
vt 0.887230 0.046097
vt 0.887230 0.007874
vt 0.894875 0.007874
vt 0.894875 0.046097
vt 0.910629 0.211700
vt 0.910629 0.173492
vt 0.918274 0.173492
vt 0.918274 0.211700
vt 0.887230 0.211700
vt 0.894875 0.211700
vt 0.431755 0.776215
vt 0.431755 0.546906
vt 0.439400 0.546906
vt 0.439400 0.776215
vt 0.910629 0.007874
vt 0.918274 0.007874
vt 0.974831 0.526520
vt 0.974831 0.784363
vt 0.973305 0.784363
vt 0.973305 0.526520
vt 0.985886 0.233719
vt 0.985886 0.007874
vt 0.987427 0.007874
vt 0.987427 0.233719
vt 0.935562 0.187744
vt 0.935562 0.240234
vt 0.934036 0.240234
vt 0.934036 0.187744
vt 0.622292 0.786880
vt 0.622292 0.823578
vt 0.620766 0.823578
vt 0.620766 0.786880
vt 0.952843 0.007874
vt 0.952843 0.060364
vt 0.951317 0.060364
vt 0.951317 0.007874
vt 0.639580 0.950958
vt 0.639580 0.987656
vt 0.638054 0.987656
vt 0.638054 0.950958
vt 0.935562 0.007874
vt 0.934036 0.007874
vt 0.622292 0.987656
vt 0.620766 0.987656
vt 0.990585 0.783905
vt 0.990585 0.526520
vt 0.992126 0.526520
vt 0.992126 0.783905
vt 0.970131 0.007874
vt 0.970131 0.234116
vt 0.968605 0.234116
vt 0.968605 0.007874
vt 0.952843 0.240234
vt 0.951317 0.240234
vt 0.639580 0.786880
vt 0.638054 0.786880
vt 0.240234 0.007874
vt 0.240234 0.265717
vt 0.238708 0.264191
vt 0.238708 0.009399
vt 0.494446 0.283005
vt 0.494446 0.509247
vt 0.492905 0.510773
vt 0.492905 0.281464
vt 0.187744 0.007874
vt 0.187744 0.009399
vt 0.658524 0.509247
vt 0.658524 0.510773
vt 0.187744 0.265717
vt 0.187744 0.264191
vt 0.695206 0.509247
vt 0.695206 0.283005
vt 0.696732 0.281464
vt 0.696732 0.510773
vt 0.007874 0.007874
vt 0.009399 0.009399
vt 0.658524 0.283005
vt 0.658524 0.281464
vt 0.007874 0.265717
vt 0.009399 0.264191
vt 0.779755 0.007874
vt 0.119980 0.806793
vt 0.119980 0.786407
vt 0.988113 0.388397
vt 0.988113 0.495209
vt 0.252930 0.797073
vt 0.258026 0.797073
vt 0.258026 0.855667
vt 0.252930 0.860764
vt 0.702759 0.796616
vt 0.707855 0.796616
vt 0.707855 0.852669
vt 0.702759 0.852669
vt 0.235100 0.759308
vt 0.230003 0.764404
vt 0.171410 0.764404
vt 0.171410 0.759308
vt 0.460258 0.888382
vt 0.455162 0.888382
vt 0.455162 0.791565
vt 0.460258 0.791565
vt 0.332397 0.860764
vt 0.337494 0.855667
vt 0.396088 0.855667
vt 0.396088 0.860764
vt 0.235100 0.822998
vt 0.230003 0.822998
vt 0.744446 0.796616
vt 0.749542 0.796616
vt 0.749542 0.852669
vt 0.744446 0.852669
vt 0.728714 0.852669
vt 0.723618 0.852669
vt 0.723618 0.796616
vt 0.728714 0.796616
vt 0.316620 0.855667
vt 0.316620 0.860764
vt 0.171417 0.679878
vt 0.176514 0.679878
vt 0.176514 0.738472
vt 0.171417 0.743568
vt 0.686996 0.852669
vt 0.681900 0.852669
vt 0.681900 0.796616
vt 0.686996 0.796616
vt 0.235107 0.738472
vt 0.235107 0.743568
vt 0.436852 0.868423
vt 0.431755 0.868423
vt 0.431755 0.791977
vt 0.436852 0.791977
vt 0.655342 0.786880
vt 0.660439 0.786880
vt 0.660439 0.883698
vt 0.655342 0.883698
vt 0.332397 0.797073
vt 0.337494 0.797073
vt 0.891296 0.510773
vt 0.876015 0.510773
vt 0.947350 0.510773
vt 0.988113 0.510773
vt 0.426178 0.281464
vt 0.252930 0.281464
vt 0.666153 0.771133
vt 0.498001 0.771133
vt 0.666153 0.526535
vt 0.492905 0.526535
vt 0.498001 0.541824
vn 1.0000 0.0000 0.0000
vn -0.0000 0.0000 -1.0000
vn 0.0000 -0.0000 1.0000
vn -1.0000 0.0000 0.0000
vn 0.0000 1.0000 0.0000
vn -0.0000 -1.0000 0.0000
vn -0.3162 0.0000 -0.9487
usemtl Holz_-_Fassade_
s 1
f 16/1/1 63/2/1 68/3/1 62/4/1 10/5/1
f 22/6/1 23/7/1 64/8/1 67/9/1 65/10/1
f 23/11/2 24/12/2 66/13/2 86/14/2 69/15/2 64/16/2
f 10/17/2 62/18/2 70/19/2 87/20/2 61/21/2 9/22/2
f 81/23/3 11/24/3 8/25/3 2/26/3 12/27/3
f 7/28/3 20/29/3 80/30/3 19/31/3 1/32/3
f 16/33/3 79/34/3 85/35/3 74/36/3 73/37/3 63/38/3
f 21/39/4 72/40/4 89/41/4 66/42/4 24/43/4
f 82/44/4 13/45/4 9/46/4 61/47/4 88/48/4
f 22/49/5 76/50/5 75/51/5 78/52/5 90/53/5 80/54/5 20/55/5
f 22/56/3 65/57/3 63/38/3 73/37/3 76/58/3
f 106/59/4 101/60/4 94/61/4 92/62/4 100/63/4
f 102/64/4 97/65/4 96/66/4 103/67/4 105/68/4
f 104/69/3 98/70/3 97/71/3 102/72/3 107/73/3 118/74/3
f 108/75/3 100/76/3 92/77/3 91/78/3 99/79/3 119/80/3
f 117/81/2 115/82/2 94/83/2 101/84/2 110/85/2 111/86/2
f 121/87/1 109/88/1 95/89/1 98/90/1 104/91/1
f 91/92/1 93/93/1 116/94/1 120/95/1 99/96/1
f 101/84/2 103/97/2 96/98/2 113/99/2 110/85/2
f 97/100/5 114/101/5 112/102/5 113/103/5 96/104/5
f 16/1/1 17/105/1 8/106/1 11/107/1
f 15/108/1 22/6/1 20/109/1 7/110/1
f 11/111/6 81/112/6 79/34/6 16/33/6
f 81/113/1 84/114/1 85/115/1 79/116/1
f 77/117/3 19/31/3 80/30/3 71/118/3
f 83/119/4 12/120/4 13/45/4 82/44/4
f 84/114/1 71/121/1 78/122/1 85/115/1
f 78/123/3 75/124/3 74/36/3 85/35/3
f 72/40/4 82/44/4 88/48/4 89/41/4
f 87/20/2 70/19/2 69/15/2 86/14/2
f 39/125/5 58/126/5 59/127/5 38/128/5
f 42/129/5 55/130/5 58/126/5 39/125/5
f 38/128/5 59/127/5 57/131/5 40/132/5
f 40/132/5 57/131/5 56/133/5 41/134/5
f 41/134/5 56/133/5 60/135/5 37/136/5
f 37/136/5 60/135/5 55/130/5 42/129/5
f 5/137/2 3/138/2 24/12/2 23/11/2
f 15/108/1 5/139/1 23/7/1 22/6/1
f 13/45/4 18/140/4 4/141/4 9/46/4
f 36/142/5 31/143/5 34/144/5 35/145/5
f 15/146/6 7/147/6 1/148/6 14/149/6
f 10/17/2 9/22/2 4/150/2 6/151/2
f 16/1/1 10/5/1 6/152/1 17/105/1
f 13/45/4 12/120/4 2/153/4 18/140/4
f 15/146/6 14/149/6 3/154/6 5/155/6
f 36/142/5 35/145/5 33/156/5 32/157/5
f 1/158/4 19/159/4 21/39/4 14/160/4
f 21/39/4 24/43/4 3/161/4 14/160/4
f 71/121/1 80/162/1 90/163/1 78/122/1
f 34/164/2 31/165/2 25/166/2 28/167/2
f 35/168/4 34/169/4 28/170/4 29/171/4
f 31/172/1 36/173/1 30/174/1 25/175/1
f 33/176/4 35/168/4 29/171/4 27/177/4
f 32/178/3 33/179/3 27/180/3 26/181/3
f 36/173/1 32/182/1 26/183/1 30/174/1
f 58/184/3 55/185/3 49/186/3 52/187/3
f 42/188/2 39/189/2 45/190/2 48/191/2
f 59/192/1 58/193/1 52/194/1 53/195/1
f 39/196/4 38/197/4 44/198/4 45/199/4
f 55/200/4 60/201/4 54/202/4 49/203/4
f 37/204/1 42/205/1 48/206/1 43/207/1
f 57/208/1 59/192/1 53/195/1 51/209/1
f 38/197/4 40/210/4 46/211/4 44/198/4
f 56/212/2 57/213/2 51/214/2 50/215/2
f 40/216/3 41/217/3 47/218/3 46/219/3
f 60/201/4 56/220/4 50/221/4 54/202/4
f 41/222/1 37/204/1 43/207/1 47/223/1
f 52/224/6 49/225/6 2/226/6 8/227/6
f 46/228/6 47/229/6 26/230/6 27/231/6
f 53/232/6 52/224/6 8/227/6 17/233/6
f 47/229/6 43/234/6 30/235/6 26/230/6
f 49/225/6 54/236/6 18/237/6 2/226/6
f 48/238/6 45/239/6 28/240/6 25/241/6
f 51/242/6 53/232/6 17/233/6 6/243/6
f 44/244/6 46/228/6 27/231/6 29/245/6
f 50/246/6 51/242/6 6/243/6 4/247/6
f 43/234/6 48/238/6 25/241/6 30/235/6
f 54/236/6 50/246/6 4/247/6 18/237/6
f 45/239/6 44/244/6 29/245/6 28/240/6
f 77/248/4 83/119/4 82/44/4 72/40/4
f 63/2/1 65/10/1 67/9/1 68/3/1
f 19/159/4 77/248/4 72/40/4 21/39/4
f 83/249/3 77/117/3 71/118/3 84/250/3
f 12/27/3 83/249/3 84/250/3 81/23/3
f 111/86/2 112/251/2 114/252/2 117/81/2
f 120/95/1 116/94/1 109/88/1 121/87/1
f 107/73/3 108/75/3 119/80/3 118/74/3
f 105/68/4 103/67/4 101/60/4 106/59/4
f 68/253/6 106/254/6 100/255/6 62/256/6
f 70/257/1 108/258/1 107/259/1 69/260/1
f 64/261/5 102/262/5 105/263/5 67/264/5
f 75/265/1 112/266/1 111/267/1 74/268/1
f 66/269/5 104/270/5 118/271/5 86/272/5
f 69/273/5 107/274/5 102/262/5 64/261/5
f 88/275/2 120/276/2 121/277/2 89/278/2
f 67/279/2 105/280/2 106/281/2 68/282/2
f 62/256/6 100/255/6 108/283/6 70/284/6
f 87/285/6 119/286/6 99/287/6 61/288/6
f 86/289/4 118/290/4 119/291/4 87/292/4
f 61/288/6 99/287/6 120/293/6 88/294/6
f 74/295/6 111/296/6 110/297/6 73/298/6
f 73/299/4 110/300/4 113/301/4 76/302/4
f 89/303/5 121/304/5 104/270/5 66/269/5
f 116/305/7 93/306/7 115/82/7 117/81/7
f 109/307/7 116/305/7 117/81/7 114/252/7
f 95/308/7 109/307/7 114/252/7
f 112/102/5 75/51/5 76/50/5 113/103/5
f 95/309/5 114/101/5 98/310/5
f 114/101/5 97/100/5 98/310/5
f 92/311/6 94/312/6 91/313/6
f 93/314/6 91/313/6 94/312/6 115/315/6
