# Blender v2.91.0 OBJ File: 'Interaktive Visualisierung(2).blend'
# www.blender.org
mtllib 3erHaus.mtl
o Baumhaus_01.001_Mesh.029
v 52.043354 4.499999 5.007980
v 52.043354 7.399999 5.007981
v 56.543354 4.499999 5.007980
v 56.543354 7.399999 5.007981
v 56.543354 4.500000 0.007980
v 56.543354 7.400000 0.007981
v 52.043354 4.500000 0.007980
v 52.043354 7.400000 0.007981
v 56.543354 6.999999 5.007981
v 56.543354 7.000000 0.007981
v 52.043354 7.000000 0.007981
v 52.043354 6.999999 5.007981
v 53.043354 6.999999 5.007981
v 53.043354 4.499999 5.007980
v 53.043354 4.500000 0.007980
v 53.043354 7.000000 0.007981
v 53.043354 7.400000 0.007981
v 53.043354 7.399999 5.007981
v 52.043354 4.799999 5.007980
v 52.043354 4.800000 0.007980
v 53.043354 4.799999 5.007980
v 53.043354 4.800000 0.007980
v 56.543354 4.800000 0.007980
v 56.543354 4.799999 5.007980
v 52.293354 7.399999 4.757981
v 56.293354 7.399999 4.757981
v 56.293354 7.400000 0.257981
v 52.293354 7.400000 0.257981
v 53.043354 7.400000 0.257981
v 53.043354 7.399999 4.757981
v 52.293354 7.249999 4.757981
v 56.293354 7.249999 4.757981
v 56.293354 7.250000 0.257981
v 52.293354 7.250000 0.257981
v 53.043354 7.250000 0.257981
v 53.043354 7.249999 4.757981
v 53.043354 7.429999 4.727981
v 53.043354 7.430000 0.287981
v 52.323353 7.430000 0.287981
v 56.263355 7.430000 0.287981
v 56.263355 7.429999 4.727981
v 52.323353 7.429999 4.727981
v 53.043354 7.399999 4.727981
v 53.043354 7.400000 0.287981
v 52.323353 7.400000 0.287981
v 56.263355 7.400000 0.287981
v 56.263355 7.399999 4.727981
v 52.323353 7.399999 4.727981
v 52.013355 7.399999 5.037981
v 56.573353 7.399999 5.037981
v 56.573353 7.400000 -0.022019
v 52.013355 7.400000 -0.022019
v 53.043354 7.400000 -0.022019
v 53.043354 7.399999 5.037981
v 52.013355 7.429999 5.037981
v 56.573353 7.429999 5.037981
v 56.573353 7.430000 -0.022019
v 52.013355 7.430000 -0.022019
v 53.043354 7.430000 -0.022019
v 53.043354 7.429999 5.037981
v 56.543354 6.699999 5.007980
v 56.543354 6.700000 0.007981
v 53.043354 6.700000 0.007981
v 56.543354 5.600000 0.007981
v 53.043354 5.600000 0.007981
v 56.543354 5.599999 5.007980
v 55.293354 5.600000 0.007981
v 55.293354 6.700000 0.007981
v 56.543354 5.600000 1.257980
v 56.543354 6.700000 1.257981
v 52.043354 5.599999 4.607981
v 53.043354 5.599999 5.007980
v 53.043354 6.700000 1.007981
v 53.043354 6.699999 2.507981
v 53.043354 4.800000 2.507980
v 53.043354 4.800000 1.007980
v 52.043354 5.599999 5.007980
v 53.043354 4.799999 4.607980
v 53.043354 6.999999 4.607981
v 52.043354 4.799999 4.607980
v 52.043354 6.999999 4.607981
v 53.043354 6.699999 5.007980
v 52.043354 6.699999 5.007980
v 52.043354 6.699999 4.607981
v 53.043354 6.699999 4.607981
v 56.543354 5.599999 3.757980
v 56.543354 6.699999 3.757981
v 55.293354 6.699999 5.007980
v 55.293354 5.599999 5.007980
v 52.193356 4.799999 4.607980
v 56.443356 6.999999 4.907981
v 56.443356 7.000000 0.107981
v 53.043354 6.999999 4.907981
v 53.143353 7.000000 0.107981
v 53.043354 4.799999 4.907980
v 53.143353 4.800000 0.107980
v 56.443356 4.800000 0.107980
v 56.443356 4.799999 4.907980
v 56.443356 6.699999 4.907980
v 56.443356 6.700000 0.107981
v 53.143353 6.700000 0.107981
v 56.443356 5.600000 0.107981
v 53.143353 5.600000 0.107981
v 56.443356 5.599999 4.907980
v 55.293354 5.600000 0.107981
v 55.293354 6.700000 0.107981
v 56.443356 5.600000 1.257980
v 56.443356 6.700000 1.257981
v 53.043354 5.599999 4.907980
v 53.143353 6.700000 1.007981
v 53.143353 6.699999 2.507981
v 53.143353 4.800000 2.507980
v 53.143353 4.800000 1.007980
v 53.143353 4.799999 4.607980
v 53.143353 6.999999 4.607981
v 53.043354 6.699999 4.907980
v 53.143353 6.699999 4.607981
v 56.443356 5.599999 3.757980
v 56.443356 6.699999 3.757981
v 55.293354 6.699999 4.907980
v 55.293354 5.599999 4.907980
vt 0.722222 1.000000
vt 0.722222 0.000000
vt 0.888889 0.000000
vt 0.888889 1.000000
vt 0.000000 1.000000
vt 0.000000 0.000000
vt 0.529086 0.913191
vt 0.529086 0.723537
vt 0.512829 0.723537
vt 0.512829 0.791271
vt 0.512829 0.913191
vt 0.409874 0.913191
vt 0.453224 0.913191
vt 0.453224 0.791271
vt 0.453224 0.723537
vt 0.409874 0.723537
vt 0.195709 0.458799
vt 0.239059 0.458799
vt 0.239059 0.526533
vt 0.239059 0.662000
vt 0.239059 0.729734
vt 0.195709 0.729734
vt 0.314921 0.458799
vt 0.314921 0.729734
vt 0.298665 0.729734
vt 0.298665 0.662000
vt 0.298665 0.526533
vt 0.298665 0.458799
vt 0.957163 0.701862
vt 0.957164 0.723537
vt 0.978838 0.723537
vt 0.978838 0.452602
vt 0.957163 0.452602
vt 0.821696 0.452601
vt 0.821696 0.723537
vt 0.837952 0.723537
vt 0.837952 0.701862
vt 0.837952 0.452601
vt 0.380506 0.996245
vt 0.364192 0.996246
vt 0.364192 0.941865
vt 0.364192 0.860296
vt 0.364192 0.746098
vt 0.380506 0.746098
vt 0.837952 0.777724
vt 0.837952 0.967378
vt 0.881301 0.967378
vt 0.881301 0.899645
vt 0.881301 0.777724
vt 0.940907 0.777724
vt 0.940907 0.899645
vt 0.940907 0.967379
vt 0.957163 0.967379
vt 0.957163 0.777724
vt 0.892139 0.452601
vt 0.846080 0.701862
vt 0.892139 0.701862
vt 0.892139 0.588069
vt 0.892139 0.506788
vt 0.260870 0.996246
vt 0.260870 0.941865
vt 0.304374 0.996246
vt 0.412971 0.511746
vt 0.412971 0.592237
vt 0.391973 0.592237
vt 0.391973 0.361264
vt 0.412971 0.361264
vt 0.489961 0.592236
vt 0.489962 0.511746
vt 0.489962 0.361264
vt 0.545955 0.361264
vt 0.545955 0.592236
vt 0.221831 0.065751
vt 0.221831 0.146241
vt 0.221831 0.321220
vt 0.221831 0.401710
vt 0.165838 0.401710
vt 0.165838 0.065751
vt 0.298822 0.321220
vt 0.298822 0.146241
vt 0.298822 0.065750
vt 0.319820 0.065750
vt 0.319820 0.401710
vt 0.298822 0.401710
vt 0.412971 0.046302
vt 0.412971 0.193284
vt 0.412971 0.298272
vt 0.391973 0.046302
vt 0.839920 0.181650
vt 0.839920 0.262140
vt 0.783926 0.262140
vt 0.783926 0.024169
vt 0.839920 0.024169
vt 0.937908 0.262141
vt 0.916910 0.262141
vt 0.916910 0.181650
vt 0.916910 0.024169
vt 0.937908 0.024169
vt 0.545955 0.298272
vt 0.783926 0.360129
vt 0.552954 0.360129
vt 0.552954 0.297136
vt 0.552954 0.192149
vt 0.552954 0.045166
vt 0.529086 0.967378
vt 0.550760 0.967378
vt 0.550760 0.913191
vt 0.393618 0.913191
vt 0.393618 0.967378
vt 0.409874 0.967378
vt 0.902976 0.452602
vt 0.902976 0.701862
vt 0.517891 0.643152
vt 0.517891 0.697532
vt 0.501577 0.697532
vt 0.501577 0.643152
vt 0.881301 0.723537
vt 0.881301 0.701862
vt 0.940907 0.723537
vt 0.398255 0.697532
vt 0.441759 0.643152
vt 0.260870 0.746098
vt 0.260870 0.860296
vt 0.221561 0.761397
vt 0.187049 0.761398
vt 0.187049 0.746539
vt 0.236420 0.746538
vt 0.221566 0.974222
vt 0.236426 0.989081
vt 0.032702 0.761401
vt 0.017842 0.746542
vt 0.032706 0.974231
vt 0.017847 0.989091
vt 0.187055 0.974228
vt 0.187056 0.989088
vt 0.179453 0.458799
vt 0.179453 0.729734
vt 0.393618 0.723537
vt 0.978838 0.967379
vt 0.978838 0.777724
vt 0.550760 0.777724
vt 0.821696 0.777724
vt 0.550760 0.723537
vt 0.336595 0.458799
vt 0.336596 0.729734
vt 0.550760 0.723537
vt 0.550760 0.967378
vt 0.821696 0.967378
vt 0.398255 0.651309
vt 0.398255 0.643152
vt 0.371765 0.322666
vt 0.363187 0.322666
vt 0.363188 0.065333
vt 0.371765 0.065333
vt 0.363187 0.108220
vt 0.354610 0.108220
vt 0.354610 0.065333
vt 0.363187 0.065333
vt 0.379674 0.036930
vt 0.379674 0.045058
vt 0.339033 0.045058
vt 0.339033 0.036930
vt 0.363187 0.294065
vt 0.354610 0.294065
vt 0.363187 0.551400
vt 0.354609 0.551400
vt 0.363187 0.737253
vt 0.354610 0.737253
vt 0.213821 0.771617
vt 0.214961 0.771617
vt 0.214964 0.964004
vt 0.213825 0.964004
vt 0.052244 0.953872
vt 0.051664 0.954432
vt 0.052464 0.784014
vt 0.052976 0.787175
vt 0.174659 0.771618
vt 0.174659 0.770477
vt 0.213820 0.770476
vt 0.199967 0.784680
vt 0.200095 0.787759
vt 0.213827 0.965149
vt 0.174664 0.965150
vt 0.174664 0.964009
vt 0.079247 0.954185
vt 0.079226 0.955325
vt 0.040443 0.771621
vt 0.040443 0.770480
vt 0.201126 0.787791
vt 0.200531 0.787791
vt 0.040447 0.964012
vt 0.039306 0.964012
vt 0.039304 0.771621
vt 0.200948 0.955325
vt 0.200298 0.954662
vt 0.040447 0.965153
vt 0.216102 0.772757
vt 0.216102 0.962866
vt 0.202259 0.786660
vt 0.202081 0.956460
vt 0.174659 0.769337
vt 0.212680 0.769336
vt 0.202259 0.956662
vt 0.079206 0.956466
vt 0.212686 0.966290
vt 0.174664 0.966290
vt 0.050507 0.955580
vt 0.051140 0.782654
vt 0.041583 0.769339
vt 0.199996 0.781604
vt 0.201194 0.787838
vt 0.038165 0.962871
vt 0.038166 0.772758
vt 0.050478 0.955544
vt 0.041586 0.966292
vt 0.052207 0.781537
vt 0.940907 0.701862
vt 0.545955 0.046302
vt 0.545955 0.193284
vt 0.944907 0.129156
vt 0.944907 0.216645
vt 0.937908 0.209646
vt 0.937908 0.129156
vt 0.298822 0.328219
vt 0.221831 0.328219
vt 0.783926 0.276139
vt 0.871416 0.276139
vt 0.871416 0.283138
vt 0.790926 0.283138
vt 0.783926 0.262141
vt 0.916911 0.262141
vt 0.916911 0.269140
vt 0.783926 0.269140
vt 0.951907 0.129156
vt 0.951907 0.216646
vt 0.944907 0.216646
vt 0.944907 0.136155
vt 0.923910 0.262141
vt 0.923910 0.349630
vt 0.916911 0.342631
vt 0.916911 0.262141
vt 0.916910 0.188649
vt 0.839920 0.188649
vt 0.489961 0.518745
vt 0.412971 0.518745
vt 0.944908 0.262141
vt 0.944908 0.349630
vt 0.937909 0.349630
vt 0.937909 0.269140
vt 0.930910 0.349630
vt 0.930910 0.262141
vt 0.937909 0.269140
vt 0.937909 0.349630
vt 0.221831 0.139242
vt 0.298822 0.139242
vt 0.944907 0.111658
vt 0.944907 0.024169
vt 0.951906 0.024169
vt 0.951906 0.104659
vt 0.944907 0.024169
vt 0.944907 0.129156
vt 0.937908 0.129156
vt 0.937908 0.024169
vt 0.783926 0.269140
vt 0.916911 0.269140
vt 0.916911 0.276139
vt 0.783926 0.276139
vt 0.930910 0.262141
vt 0.930910 0.349630
vt 0.923910 0.342631
vt 0.923910 0.262141
vt 0.412971 0.024169
vt 0.391973 0.024169
vt 0.489961 0.024169
vt 0.545955 0.024169
vt 0.545955 0.297136
vt 0.545955 0.192149
vt 0.783926 0.024169
vt 0.553378 0.704666
vt 0.553378 0.368706
vt 0.784351 0.704666
vt 0.791350 0.368706
vt 0.784351 0.389703
vn 0.0000 1.0000 0.0000
vn 0.0000 0.0000 -1.0000
vn 1.0000 0.0000 0.0000
vn -1.0000 0.0000 0.0000
vn 0.0000 0.0000 1.0000
vn 0.0000 -1.0000 -0.0000
vn 0.9487 0.0000 0.3162
usemtl Kies
s 1
f 36/1/1 35/2/1 34/3/1 31/4/1
f 36/1/1 32/5/1 33/6/1 35/2/1
usemtl Holz_-_3Haus.001
f 16/7/2 10/8/2 62/9/2 68/10/2 63/11/2
f 22/12/2 65/13/2 67/14/2 64/15/2 23/16/2
f 23/17/3 64/18/3 69/19/3 86/20/3 66/21/3 24/22/3
f 10/23/3 9/24/3 61/25/3 87/26/3 70/27/3 62/28/3
f 81/29/4 12/30/4 2/31/4 8/32/4 11/33/4
f 7/34/4 1/35/4 19/36/4 80/37/4 20/38/4
f 16/39/4 63/40/4 73/41/4 74/42/4 85/43/4 79/44/4
f 21/45/5 24/46/5 66/47/5 89/48/5 72/49/5
f 82/50/5 88/51/5 61/52/5 9/53/5 13/54/5
f 22/55/1 20/38/1 80/37/1 90/56/1 78/57/1 75/58/1 76/59/1
f 22/60/4 76/61/4 73/41/4 63/40/4 65/62/4
f 106/63/5 100/64/5 92/65/5 94/66/5 101/67/5
f 102/68/5 105/69/5 103/70/5 96/71/5 97/72/5
f 104/73/4 118/74/4 107/75/4 102/76/4 97/77/4 98/78/4
f 108/79/4 119/80/4 99/81/4 91/82/4 92/83/4 100/84/4
f 117/85/3 111/86/3 110/87/3 101/67/3 94/66/3 115/88/3
f 121/89/2 104/90/2 98/91/2 95/92/2 109/93/2
f 91/94/2 99/95/2 120/96/2 116/97/2 93/98/2
f 101/67/3 110/87/3 113/99/3 96/71/3 103/70/3
f 97/100/1 96/101/1 113/102/1 112/103/1 114/104/1
f 16/7/2 11/105/2 8/106/2 17/107/2
f 15/108/2 7/109/2 20/110/2 22/12/2
f 11/33/6 16/111/6 79/112/6 81/29/6
f 81/113/2 79/114/2 85/115/2 84/116/2
f 77/117/4 71/118/4 80/37/4 19/36/4
f 83/119/5 82/50/5 13/54/5 12/30/5
f 84/116/2 85/115/2 78/120/2 71/121/2
f 78/122/4 85/43/4 74/42/4 75/123/4
f 72/49/5 89/48/5 88/51/5 82/50/5
f 87/26/3 86/20/3 69/19/3 70/27/3
f 39/124/1 38/125/1 59/126/1 58/127/1
f 42/128/1 39/124/1 58/127/1 55/129/1
f 38/125/1 40/130/1 57/131/1 59/126/1
f 40/130/1 41/132/1 56/133/1 57/131/1
f 41/132/1 37/134/1 60/135/1 56/133/1
f 37/134/1 42/128/1 55/129/1 60/135/1
f 5/136/3 23/17/3 24/22/3 3/137/3
f 15/108/2 22/12/2 23/16/2 5/138/2
f 13/54/5 9/53/5 4/139/5 18/140/5
f 15/141/6 14/142/6 1/35/6 7/143/6
f 10/23/3 6/144/3 4/145/3 9/24/3
f 16/7/2 17/107/2 6/146/2 10/8/2
f 13/54/5 18/140/5 2/31/5 12/30/5
f 15/141/6 5/147/6 3/148/6 14/142/6
f 1/35/5 14/142/5 21/45/5 19/36/5
f 21/45/5 14/142/5 3/148/5 24/46/5
f 71/121/2 78/120/2 90/149/2 80/150/2
f 34/151/3 28/152/3 25/153/3 31/154/3
f 35/155/5 29/156/5 28/157/5 34/158/5
f 31/159/2 25/160/2 30/161/2 36/162/2
f 33/163/5 27/164/5 29/156/5 35/155/5
f 32/165/4 26/166/4 27/164/4 33/163/4
f 36/167/2 30/168/2 26/166/2 32/165/2
f 58/169/4 52/170/4 49/171/4 55/172/4
f 42/173/3 48/174/3 45/175/3 39/176/3
f 59/177/2 53/178/2 52/179/2 58/169/2
f 39/176/5 45/175/5 44/180/5 38/181/5
f 55/172/5 49/182/5 54/183/5 60/184/5
f 37/185/2 43/186/2 48/174/2 42/173/2
f 57/187/2 51/188/2 53/178/2 59/177/2
f 38/181/5 44/180/5 46/189/5 40/190/5
f 56/191/3 50/192/3 51/193/3 57/187/3
f 40/190/4 46/189/4 47/194/4 41/195/4
f 60/184/5 54/183/5 50/196/5 56/191/5
f 41/195/2 47/194/2 43/186/2 37/185/2
f 52/170/6 8/197/6 2/198/6 49/171/6
f 46/189/6 27/199/6 26/200/6 47/194/6
f 53/178/6 17/201/6 8/202/6 52/179/6
f 47/194/6 26/203/6 30/204/6 43/186/6
f 49/182/6 2/205/6 18/206/6 54/183/6
f 48/174/6 25/207/6 28/208/6 45/175/6
f 51/188/6 6/209/6 17/201/6 53/178/6
f 44/180/6 29/210/6 27/211/6 46/189/6
f 50/192/6 4/212/6 6/213/6 51/193/6
f 43/186/6 30/204/6 25/214/6 48/174/6
f 54/183/6 18/206/6 4/215/6 50/196/6
f 45/175/6 28/216/6 29/210/6 44/180/6
f 77/117/5 72/49/5 82/50/5 83/119/5
f 63/11/2 68/10/2 67/14/2 65/13/2
f 19/36/5 21/45/5 72/49/5 77/117/5
f 83/119/4 84/217/4 71/118/4 77/117/4
f 12/30/4 81/29/4 84/217/4 83/119/4
f 111/86/3 117/85/3 114/218/3 112/219/3
f 120/96/2 121/89/2 109/93/2 116/97/2
f 107/75/4 118/74/4 119/80/4 108/79/4
f 105/69/5 106/63/5 101/67/5 103/70/5
f 68/220/6 62/221/6 100/222/6 106/223/6
f 70/224/2 69/225/2 107/75/2 108/79/2
f 64/226/1 67/227/1 105/228/1 102/229/1
f 75/230/2 74/231/2 111/232/2 112/233/2
f 66/234/1 86/235/1 118/236/1 104/237/1
f 69/238/1 64/239/1 102/240/1 107/241/1
f 88/242/3 89/243/3 121/89/3 120/96/3
f 67/244/3 68/245/3 106/63/3 105/69/3
f 62/246/6 70/247/6 108/248/6 100/249/6
f 87/250/6 61/251/6 99/252/6 119/253/6
f 86/254/5 87/255/5 119/80/5 118/74/5
f 61/256/6 88/257/6 120/258/6 99/259/6
f 74/260/6 73/261/6 110/262/6 111/263/6
f 73/264/5 76/265/5 113/266/5 110/267/5
f 89/268/1 66/269/1 104/270/1 121/271/1
f 116/272/7 117/85/7 115/88/7 93/273/7
f 109/274/7 114/218/7 117/85/7 116/272/7
f 95/275/7 114/218/7 109/274/7
f 112/103/1 113/102/1 76/276/1 75/277/1
f 95/275/1 98/278/1 114/104/1
f 114/104/1 98/278/1 97/100/1
f 92/279/6 91/280/6 94/281/6
f 93/282/6 115/283/6 94/281/6 91/280/6
