# Blender v2.91.0 OBJ File: 'Interaktive Visualisierung(2).blend'
# www.blender.org
mtllib rundHaus.mtl
o Brüstung.001_Mesh.031
v 26.978226 4.300001 -2.665974
v 26.978226 5.100001 -2.665974
v 32.728329 4.300000 2.334026
v 33.669445 5.116933 -2.665974
v 33.643574 4.989902 -2.665974
v 33.598511 4.863145 -2.665974
v 33.533836 4.740952 -2.665974
v 33.450409 4.627791 -2.665974
v 33.350437 4.527817 -2.665974
v 33.237274 4.444392 -2.665974
v 33.115082 4.379716 -2.665974
v 32.988327 4.334654 -2.665974
v 32.861294 4.308783 -2.665974
v 32.728329 4.300001 -2.665974
v 26.978226 5.100000 2.334026
v 26.978226 4.300000 2.334026
v 32.861294 4.308782 2.334026
v 33.669445 5.116932 2.334026
v 33.643574 4.989901 2.334026
v 33.598511 4.863144 2.334026
v 33.533836 4.740952 2.334026
v 33.450409 4.627790 2.334026
v 33.350437 4.527816 2.334026
v 33.237274 4.444391 2.334026
v 33.115082 4.379715 2.334026
v 32.988327 4.334653 2.334026
v 27.652143 5.101706 2.334026
v 28.652143 5.104236 2.334026
v 28.652143 4.300000 2.334026
v 27.652143 4.300000 2.334026
v 26.998226 4.300001 -2.645974
v 26.998226 5.100001 -2.645974
v 33.669445 5.116933 -2.645974
v 33.643574 4.989902 -2.645974
v 33.598511 4.863145 -2.645974
v 33.533836 4.740952 -2.645974
v 33.450409 4.627791 -2.645974
v 33.350437 4.527817 -2.645974
v 33.237274 4.444392 -2.645974
v 33.115082 4.379716 -2.645974
v 32.988327 4.334654 -2.645974
v 32.861294 4.308783 -2.645974
v 32.728329 4.300001 -2.645974
v 26.998226 5.100000 2.314026
v 26.998226 4.300000 2.314026
v 27.652143 5.101706 2.314026
v 27.652143 4.300000 2.314026
v 32.728329 4.300000 2.314026
v 32.861294 4.308782 2.314026
v 33.669445 5.116932 2.314026
v 33.643574 4.989901 2.314026
v 33.598511 4.863144 2.314026
v 33.533836 4.740952 2.314026
v 33.450409 4.627790 2.314026
v 33.350437 4.527816 2.314026
v 33.237274 4.444391 2.314026
v 33.115082 4.379715 2.314026
v 32.988327 4.334653 2.314026
v 28.652143 5.104236 2.314026
v 28.652143 4.300000 2.314026
v 26.978222 4.000000 2.334026
v 26.978222 6.947603 2.334027
v 33.967453 5.076929 2.334026
v 33.933319 4.909322 2.334026
v 33.873867 4.742090 2.334026
v 33.788544 4.580890 2.334026
v 26.978222 4.000000 -2.665974
v 26.978222 6.947604 -2.665973
v 32.738224 4.000000 2.334026
v 32.738224 6.500000 2.334027
v 33.978222 5.260000 2.334026
v 32.738224 4.000000 -2.665974
v 33.978222 5.240001 -2.665974
v 32.738224 6.500000 -2.665973
v 33.967453 5.423070 2.334026
v 33.933319 5.590677 2.334027
v 33.873867 5.757909 2.334027
v 33.788544 5.919109 2.334027
v 33.678493 6.068388 2.334027
v 33.546612 6.200270 2.334027
v 33.397331 6.310321 2.334027
v 33.236134 6.395643 2.334027
v 33.068901 6.455095 2.334027
v 32.901291 6.489230 2.334027
v 32.901291 6.489231 -2.665973
v 33.068901 6.455096 -2.665973
v 33.236134 6.395644 -2.665973
v 33.397331 6.310322 -2.665973
v 33.546612 6.200271 -2.665973
v 33.678493 6.068389 -2.665973
v 33.788544 5.919110 -2.665973
v 33.873867 5.757910 -2.665973
v 33.933319 5.590678 -2.665973
v 33.967453 5.423071 -2.665974
v 33.967453 5.076930 -2.665974
v 33.933319 4.909323 -2.665974
v 33.873867 4.742091 -2.665974
v 33.788544 4.580891 -2.665974
v 33.678493 4.431612 -2.665974
v 33.546612 4.299731 -2.665974
v 33.397331 4.189679 -2.665974
v 33.236134 4.104357 -2.665974
v 33.068901 4.044905 -2.665974
v 32.901291 4.010770 -2.665974
v 32.901291 4.010769 2.334026
v 33.068901 4.044904 2.334026
v 33.236134 4.104356 2.334026
v 33.397331 4.189678 2.334026
v 33.546612 4.299730 2.334026
v 33.678493 4.431611 2.334026
v 29.278223 4.300000 2.334026
v 29.278223 6.199999 2.334027
v 33.669441 5.116931 2.334026
v 33.643570 4.989900 2.334026
v 33.598507 4.863143 2.334026
v 33.533833 4.740951 2.334026
v 33.678223 5.249895 2.334026
v 32.728329 4.300000 2.334026
v 32.728329 6.199999 2.334027
v 33.678223 5.250104 2.334026
v 33.669441 5.383068 2.334026
v 33.643570 5.510099 2.334026
v 33.598507 5.636856 2.334027
v 33.533833 5.759048 2.334027
v 33.450405 5.872210 2.334027
v 33.350433 5.972184 2.334027
v 33.237270 6.055609 2.334027
v 33.115078 6.120284 2.334027
v 32.988323 6.165347 2.334027
v 32.861290 6.191218 2.334027
v 32.861290 4.308781 2.334026
v 32.988323 4.334652 2.334026
v 33.115078 4.379715 2.334026
v 33.237270 4.444391 2.334026
v 33.350433 4.527815 2.334026
v 33.450405 4.627789 2.334026
v 29.278223 4.300001 -2.665974
v 29.278223 6.200000 -2.665973
v 32.728329 4.300001 -2.665974
v 33.678223 5.249896 -2.665974
v 32.728329 6.200000 -2.665973
v 32.861290 6.191219 -2.665973
v 32.988323 6.165348 -2.665973
v 33.115078 6.120285 -2.665973
v 33.237270 6.055610 -2.665973
v 33.350433 5.972185 -2.665973
v 33.450405 5.872211 -2.665973
v 33.533833 5.759049 -2.665973
v 33.598507 5.636857 -2.665973
v 33.643570 5.510100 -2.665974
v 33.669441 5.383069 -2.665974
v 33.669441 5.116932 -2.665974
v 33.643570 4.989901 -2.665974
v 33.598507 4.863144 -2.665974
v 33.533833 4.740952 -2.665974
v 33.450405 4.627790 -2.665974
v 33.350433 4.527816 -2.665974
v 33.237270 4.444392 -2.665974
v 33.115078 4.379716 -2.665974
v 32.988323 4.334653 -2.665974
v 32.861290 4.308782 -2.665974
v 26.978222 4.300001 -2.665974
v 26.978222 4.300000 2.334026
v 26.978222 6.647604 -2.665973
v 26.978222 6.647604 2.334027
v 29.278223 4.300000 2.034026
v 29.278223 6.199999 2.034027
v 33.669441 5.116931 2.034026
v 33.643570 4.989900 2.034026
v 33.598507 4.863143 2.034026
v 33.533833 4.740951 2.034026
v 33.678223 5.249895 2.034026
v 32.728329 4.300000 2.034026
v 32.728329 6.199999 2.034027
v 33.678223 5.250104 2.034026
v 33.669441 5.383068 2.034026
v 33.643570 5.510099 2.034026
v 33.598507 5.636856 2.034027
v 33.533833 5.759048 2.034027
v 33.450405 5.872210 2.034027
v 33.350433 5.972184 2.034027
v 33.237270 6.055609 2.034027
v 33.115078 6.120284 2.034027
v 32.988323 6.165347 2.034027
v 32.861290 6.191218 2.034027
v 32.861290 4.308781 2.034026
v 32.988323 4.334652 2.034026
v 33.115078 4.379715 2.034026
v 33.237270 4.444391 2.034026
v 33.350433 4.527815 2.034026
v 33.450405 4.627789 2.034026
v 29.278223 4.300001 -2.365974
v 29.278223 6.200000 -2.365973
v 32.728329 4.300001 -2.365974
v 33.678223 5.249896 -2.365974
v 32.728329 6.200000 -2.365973
v 32.861290 6.191219 -2.365973
v 32.988323 6.165348 -2.365973
v 33.115078 6.120285 -2.365973
v 33.237270 6.055610 -2.365973
v 33.350433 5.972185 -2.365973
v 33.450405 5.872211 -2.365973
v 33.533833 5.759049 -2.365973
v 33.598507 5.636857 -2.365973
v 33.643570 5.510100 -2.365974
v 33.669441 5.383069 -2.365974
v 33.669441 5.116932 -2.365974
v 33.643570 4.989901 -2.365974
v 33.598507 4.863144 -2.365974
v 33.533833 4.740952 -2.365974
v 33.450405 4.627790 -2.365974
v 33.350433 4.527816 -2.365974
v 33.237270 4.444392 -2.365974
v 33.115078 4.379716 -2.365974
v 32.988323 4.334653 -2.365974
v 32.861290 4.308782 -2.365974
vt 0.963571 0.458907
vt 0.964273 1.000000
vt 0.954004 0.997895
vt 0.943758 0.994239
vt 0.933883 0.988996
vt 0.924740 0.982239
vt 0.916666 0.974144
vt 0.909931 0.964985
vt 0.904713 0.955097
vt 0.901082 0.944843
vt 0.899002 0.934568
vt 0.898305 0.923815
vt 0.898878 0.458827
vt 0.161530 0.808334
vt 0.163208 0.834702
vt 0.168274 0.859909
vt 0.177155 0.885071
vt 0.189911 0.909332
vt 0.206390 0.931824
vt 0.226166 0.951691
vt 0.248566 0.968292
vt 0.272766 0.981186
vt 0.297882 0.990173
vt 0.323059 0.995377
vt 0.323059 0.000397
vt 0.163574 0.000000
vt 0.790041 0.077400
vt 0.790760 0.066564
vt 0.792864 0.056211
vt 0.796531 0.045879
vt 0.801796 0.035917
vt 0.808589 0.026691
vt 0.816730 0.018537
vt 0.825946 0.011730
vt 0.835900 0.006446
vt 0.846234 0.002783
vt 0.856429 0.000787
vt 0.855470 0.543475
vt 0.790588 0.543518
vt 0.161530 0.994965
vt 0.161530 0.000000
vt 0.136353 0.005188
vt 0.111237 0.014191
vt 0.087036 0.027069
vt 0.064636 0.043671
vt 0.044861 0.063568
vt 0.028381 0.086029
vt 0.015625 0.110291
vt 0.006744 0.135468
vt 0.001678 0.160675
vt 0.000000 0.187042
vt 0.002045 0.995361
vt 0.899375 0.054497
vt 0.964068 0.054577
vt 0.899443 0.000000
vt 0.964273 0.000080
vt 0.790806 0.944516
vt 0.855368 0.944539
vt 0.855320 0.997122
vt 0.790880 0.997105
vt 0.788960 0.545180
vt 0.788406 0.077346
vt 0.789135 0.066345
vt 0.791281 0.055772
vt 0.795027 0.045218
vt 0.800405 0.035044
vt 0.807343 0.025621
vt 0.815658 0.017293
vt 0.825070 0.010340
vt 0.835236 0.004936
vt 0.845875 0.001156
vt 0.857093 0.000000
vt 0.857093 0.543490
vt 0.789192 0.946132
vt 0.788970 0.541902
vt 0.857002 0.944584
vt 0.856090 0.997913
vt 0.790086 0.997920
vt 0.789145 0.942911
vt 0.330994 0.000000
vt 0.330994 0.159485
vt 0.334961 0.159485
vt 0.334961 0.000000
vt 0.327026 0.000000
vt 0.327026 0.994965
vt 0.330994 0.994965
vt 0.330994 0.000000
vt 0.327026 1.000000
vt 0.327026 0.987926
vt 0.323059 0.987926
vt 0.323059 1.000000
vt 0.327026 0.972218
vt 0.323059 0.972218
vt 0.327026 0.953037
vt 0.323059 0.953037
vt 0.327026 0.930798
vt 0.323059 0.930798
vt 0.327026 0.906158
vt 0.323059 0.906158
vt 0.327026 0.879944
vt 0.323059 0.879944
vt 0.327026 0.853065
vt 0.323059 0.853065
vt 0.327026 0.826427
vt 0.323059 0.826427
vt 0.327026 0.800816
vt 0.323059 0.800816
vt 0.327026 0.775040
vt 0.323059 0.775040
vt 0.327026 0.000000
vt 0.323059 0.000000
vt 0.323436 0.492307
vt 0.323436 0.501492
vt 0.323436 0.510662
vt 0.020646 0.510662
vt 0.020646 0.501492
vt 0.020646 0.501477
vt 0.020646 0.492307
vt 0.323437 0.161247
vt 0.323436 0.398670
vt 0.020646 0.398669
vt 0.020646 0.161246
vt 0.385770 0.611531
vt 0.405118 0.612377
vt 0.404175 0.975547
vt 0.385511 0.830503
vt 0.378478 0.167142
vt 0.415031 0.023226
vt 0.410953 0.377921
vt 0.392186 0.379348
vt 0.385260 0.975514
vt 0.396651 0.024432
vt 0.719503 0.613087
vt 0.738689 0.612368
vt 0.738336 0.831054
vt 0.719200 0.975903
vt 0.736548 0.383372
vt 0.717819 0.381504
vt 0.722024 0.026811
vt 0.755207 0.171541
vt 0.722239 0.008391
vt 0.415246 0.004806
vt 0.404149 0.994806
vt 0.719200 0.994806
vt 0.389917 0.492371
vt 0.409978 0.493658
vt 0.409743 0.503571
vt 0.389493 0.502902
vt 0.717065 0.391155
vt 0.411479 0.387589
vt 0.405904 0.602449
vt 0.718833 0.603370
vt 0.716526 0.401189
vt 0.411780 0.397636
vt 0.716146 0.411573
vt 0.411913 0.408031
vt 0.715883 0.422233
vt 0.411919 0.418705
vt 0.715707 0.433066
vt 0.411831 0.429559
vt 0.715709 0.443972
vt 0.411678 0.440475
vt 0.715773 0.454852
vt 0.411365 0.451345
vt 0.715897 0.465583
vt 0.411017 0.462076
vt 0.716081 0.476058
vt 0.410647 0.472553
vt 0.716322 0.486191
vt 0.410272 0.482682
vt 0.716619 0.495919
vt 0.406563 0.592006
vt 0.718279 0.593169
vt 0.407142 0.581144
vt 0.717813 0.582572
vt 0.407669 0.569980
vt 0.717419 0.571685
vt 0.408167 0.558649
vt 0.717085 0.560632
vt 0.408524 0.547259
vt 0.716801 0.549543
vt 0.408864 0.535931
vt 0.716677 0.538526
vt 0.409182 0.524798
vt 0.716599 0.527684
vt 0.409477 0.513978
vt 0.716573 0.517127
vt 0.716599 0.506938
vt 0.735960 0.392688
vt 0.735608 0.402118
vt 0.735380 0.412110
vt 0.735228 0.422521
vt 0.735122 0.433208
vt 0.735206 0.444005
vt 0.735329 0.454755
vt 0.735504 0.465333
vt 0.735743 0.475632
vt 0.736056 0.485562
vt 0.736437 0.495681
vt 0.736428 0.496994
vt 0.736417 0.507150
vt 0.736369 0.517133
vt 0.736399 0.527529
vt 0.736489 0.538252
vt 0.736616 0.549197
vt 0.736932 0.560221
vt 0.737266 0.571175
vt 0.737619 0.581932
vt 0.737983 0.592364
vt 0.738345 0.602349
vt 0.390308 0.481948
vt 0.390821 0.471848
vt 0.391302 0.461441
vt 0.391746 0.450793
vt 0.392159 0.439996
vt 0.392377 0.429177
vt 0.392554 0.418497
vt 0.392665 0.408092
vt 0.392680 0.398103
vt 0.392554 0.388672
vt 0.389150 0.513285
vt 0.386054 0.601315
vt 0.386409 0.591062
vt 0.386823 0.580312
vt 0.387278 0.569206
vt 0.387769 0.557880
vt 0.388110 0.546484
vt 0.388462 0.535176
vt 0.388809 0.524074
vt 0.020646 0.841723
vt 0.000002 0.841723
vt 0.000001 0.604301
vt 0.020646 0.604301
vt 0.344082 0.841722
vt 0.344082 0.999999
vt 0.323437 0.841722
vt 0.000002 0.161246
vt 0.000002 0.000000
vt 0.000001 0.595130
vt 0.020646 0.595130
vt 0.000001 0.398669
vt 0.020646 0.407839
vt 0.000001 0.407839
vt 0.020646 0.416760
vt 0.000000 0.416760
vt 0.020646 0.426018
vt 0.000000 0.426018
vt 0.020646 0.435533
vt 0.000000 0.435533
vt 0.020646 0.445208
vt 0.000000 0.445208
vt 0.020646 0.454938
vt 0.000000 0.454938
vt 0.020646 0.464613
vt 0.000000 0.464613
vt 0.020646 0.474128
vt 0.000000 0.474128
vt 0.020646 0.483386
vt 0.000000 0.483386
vt 0.000000 0.492307
vt 0.000000 0.501478
vt 0.000000 0.501492
vt 0.000000 0.510662
vt 0.020646 0.519584
vt 0.000000 0.519584
vt 0.020646 0.528842
vt 0.000000 0.528842
vt 0.020646 0.538357
vt 0.000000 0.538357
vt 0.020646 0.548032
vt 0.000000 0.548032
vt 0.020646 0.557761
vt 0.000000 0.557762
vt 0.020646 0.567436
vt 0.000000 0.567437
vt 0.020646 0.576951
vt 0.000000 0.576951
vt 0.020646 0.586209
vt 0.000001 0.586209
vt 0.344082 0.492307
vt 0.344082 0.501492
vt 0.323436 0.483385
vt 0.344081 0.483386
vt 0.323436 0.474127
vt 0.344081 0.474128
vt 0.323436 0.464613
vt 0.344081 0.464613
vt 0.323436 0.454938
vt 0.344081 0.454938
vt 0.323436 0.445209
vt 0.344081 0.445209
vt 0.323436 0.435534
vt 0.344081 0.435534
vt 0.323436 0.426019
vt 0.344081 0.426019
vt 0.323436 0.416762
vt 0.344081 0.416761
vt 0.323436 0.407840
vt 0.344081 0.407840
vt 0.344081 0.398670
vt 0.344082 0.161247
vt 0.344082 0.510662
vt 0.323436 0.604300
vt 0.344081 0.604300
vt 0.323436 0.595130
vt 0.344081 0.595130
vt 0.323436 0.586208
vt 0.344081 0.586208
vt 0.323436 0.576950
vt 0.344081 0.576950
vt 0.323436 0.567436
vt 0.344081 0.567436
vt 0.323436 0.557761
vt 0.344082 0.557761
vt 0.323436 0.548031
vt 0.344082 0.548031
vt 0.323436 0.538356
vt 0.344082 0.538356
vt 0.323436 0.528842
vt 0.344082 0.528842
vt 0.323436 0.519584
vt 0.344082 0.519584
vt 0.000002 1.000000
vt 0.344082 0.000001
vt 0.738097 0.975934
vt 0.740371 0.028446
vn 0.0000 0.0000 -1.0000
vn 0.0000 0.0000 1.0000
vn -1.0000 0.0000 0.0000
vn 1.0000 0.0000 0.0000
vn 0.0000 -1.0000 0.0000
vn 0.0330 -0.9995 0.0000
vn 0.1330 -0.9911 0.0000
vn 0.2679 -0.9634 0.0000
vn 0.4025 -0.9154 0.0000
vn 0.5321 -0.8467 0.0000
vn 0.6521 -0.7581 0.0000
vn 0.7581 -0.6521 0.0000
vn 0.8467 -0.5321 0.0000
vn 0.9154 -0.4024 0.0000
vn 0.9634 -0.2679 0.0000
vn 0.9799 -0.1996 0.0000
vn -0.0025 1.0000 0.0013
vn -0.0013 1.0000 0.0006
vn -0.0013 1.0000 -0.0006
vn -0.0026 1.0000 -0.0013
vn -0.0025 1.0000 0.0000
vn 0.4024 -0.9154 0.0000
vn -0.9911 -0.1330 0.0000
vn -0.9995 0.0330 -0.0000
vn -0.9911 0.1330 -0.0000
vn -0.9995 -0.0330 -0.0000
vn -0.0960 -0.9954 -0.0000
vn -0.0330 -0.9995 -0.0000
vn 0.0717 0.9974 0.0000
vn 0.0775 0.9970 0.0000
vn 0.1330 0.9911 0.0000
vn 0.2679 0.9634 0.0000
vn 0.4024 0.9154 0.0000
vn 0.5321 0.8467 0.0000
vn 0.6521 0.7581 0.0000
vn 0.7581 0.6521 0.0000
vn 0.8467 0.5321 0.0000
vn 0.9154 0.4025 0.0000
vn 0.9634 0.2679 0.0000
vn 0.9911 0.1330 -0.0000
vn 0.9995 -0.0328 -0.0000
vn 0.9995 0.0328 0.0000
vn 0.9154 -0.4025 -0.0000
vn 0.9911 -0.1330 0.0000
vn 0.0000 1.0000 0.0000
vn -0.0330 0.9995 0.0000
vn -0.1910 -0.9816 -0.0000
vn -0.1330 0.9911 0.0000
vn -0.1330 -0.9911 -0.0000
vn -0.2679 -0.9634 -0.0000
vn -0.4024 -0.9154 -0.0000
vn -0.5321 -0.8467 -0.0000
vn -0.6521 -0.7581 -0.0000
vn -0.7581 -0.6521 -0.0000
vn -0.8467 -0.5321 -0.0000
vn -0.9154 -0.4024 -0.0000
vn -0.9634 -0.2679 -0.0000
vn -0.9634 0.2679 0.0000
vn -0.9154 0.4024 0.0000
vn -0.8467 0.5321 0.0000
vn -0.7581 0.6521 0.0000
vn -0.6521 0.7581 0.0000
vn -0.5321 0.8467 0.0000
vn -0.4024 0.9154 0.0000
vn -0.2679 0.9634 0.0000
vn -0.9995 -0.0329 0.0000
usemtl Holz_
s 1
f 2/1/1 4/2/1 5/3/1 6/4/1 7/5/1 8/6/1 9/7/1 10/8/1 11/9/1 12/10/1 13/11/1 14/12/1 1/13/1
f 3/14/2 17/15/2 26/16/2 25/17/2 24/18/2 23/19/2 22/20/2 21/21/2 20/22/2 19/23/2 18/24/2 28/25/2 29/26/2
f 43/27/2 42/28/2 41/29/2 40/30/2 39/31/2 38/32/2 37/33/2 36/34/2 35/35/2 34/36/2 33/37/2 32/38/2 31/39/2
f 59/40/1 50/41/1 51/42/1 52/43/1 53/44/1 54/45/1 55/46/1 56/47/1 57/48/1 58/49/1 49/50/1 48/51/1 60/52/1
f 2/1/3 1/13/3 16/53/3 15/54/3
f 30/55/2 27/56/2 15/54/2 16/53/2
f 45/57/4 31/39/4 32/38/4 44/58/4
f 44/58/1 46/59/1 47/60/1 45/57/1
f 1/61/5 14/62/6 43/27/6 31/39/5
f 14/62/6 13/63/7 42/28/7 43/27/6
f 13/63/7 12/64/8 41/29/8 42/28/7
f 12/64/8 11/65/9 40/30/9 41/29/8
f 11/65/9 10/66/10 39/31/10 40/30/9
f 10/66/10 9/67/11 38/32/11 39/31/10
f 9/67/11 8/68/12 37/33/12 38/32/11
f 8/68/12 7/69/13 36/34/13 37/33/12
f 7/69/13 6/70/14 35/35/14 36/34/13
f 6/70/14 5/71/15 34/36/15 35/35/14
f 5/71/15 4/72/16 33/37/16 34/36/15
f 4/72/17 2/73/18 32/38/18 33/37/17
f 16/74/5 1/75/5 31/39/5 45/57/5
f 2/73/18 15/76/19 44/58/19 32/38/18
f 15/76/19 27/77/20 46/59/20 44/58/19
f 27/77/4 30/78/4 47/60/4 46/59/4
f 30/78/5 16/79/5 45/57/5 47/60/5
f 29/80/3 28/81/3 59/82/3 60/83/3
f 28/84/21 18/85/21 50/86/21 59/87/21
f 18/88/16 19/89/15 51/90/15 50/91/16
f 19/89/15 20/92/14 52/93/14 51/90/15
f 20/92/14 21/94/13 53/95/13 52/93/14
f 21/94/13 22/96/12 54/97/12 53/95/13
f 22/96/12 23/98/11 55/99/11 54/97/12
f 23/98/11 24/100/10 56/101/10 55/99/11
f 24/100/10 25/102/22 57/103/22 56/101/10
f 25/102/22 26/104/8 58/105/8 57/103/22
f 26/104/8 17/106/7 49/107/7 58/105/8
f 17/106/7 3/108/6 48/109/6 49/107/7
f 3/108/6 29/110/5 60/111/5 48/109/6
f 206/112/23 195/113/24 207/114/25 168/115/25 172/116/24 175/117/26 176/118/23
f 193/119/27 196/120/28 174/121/28 167/122/27
f 139/123/1 72/124/1 67/125/1 137/126/1
f 138/127/1 68/128/1 74/129/1 141/130/1
f 162/131/1 137/126/1 67/125/1
f 164/132/1 68/128/1 138/127/1
f 69/133/2 118/134/2 111/135/2 61/136/2
f 119/137/2 70/138/2 62/139/2 112/140/2
f 165/141/3 62/139/3 68/128/3 164/142/3
f 162/143/3 67/125/3 61/136/3 163/144/3
f 140/145/1 73/146/1 95/147/1 152/148/1
f 70/138/29 74/129/29 68/128/30 62/139/30
f 72/124/6 69/133/6 61/136/5 67/125/5
f 84/149/31 85/150/31 74/129/29 70/138/29
f 104/151/7 105/152/7 69/133/6 72/124/6
f 84/149/31 83/153/32 86/154/32 85/150/31
f 83/153/32 82/155/33 87/156/33 86/154/32
f 82/155/33 81/157/34 88/158/34 87/156/33
f 81/157/34 80/159/35 89/160/35 88/158/34
f 80/159/35 79/161/36 90/162/36 89/160/35
f 79/161/36 78/163/37 91/164/37 90/162/36
f 78/163/37 77/165/38 92/166/38 91/164/37
f 77/165/38 76/167/39 93/168/39 92/166/38
f 76/167/39 75/169/40 94/170/40 93/168/39
f 75/169/40 71/171/41 73/146/42 94/170/40
f 104/151/7 103/172/8 106/173/8 105/152/7
f 103/172/8 102/174/22 107/175/22 106/173/8
f 102/174/22 101/176/10 108/177/10 107/175/22
f 101/176/10 100/178/11 109/179/11 108/177/10
f 100/178/11 99/180/12 110/181/12 109/179/11
f 99/180/12 98/182/13 66/183/13 110/181/12
f 98/182/13 97/184/43 65/185/43 66/183/13
f 97/184/43 96/186/15 64/187/15 65/185/43
f 96/186/15 95/147/44 63/188/44 64/187/15
f 95/147/44 73/146/42 71/171/41 63/188/44
f 130/189/2 84/149/2 70/138/2 119/137/2
f 129/190/2 83/153/2 84/149/2 130/189/2
f 128/191/2 82/155/2 83/153/2 129/190/2
f 127/192/2 81/157/2 82/155/2 128/191/2
f 126/193/2 80/159/2 81/157/2 127/192/2
f 125/194/2 79/161/2 80/159/2 126/193/2
f 124/195/2 78/163/2 79/161/2 125/194/2
f 123/196/2 77/165/2 78/163/2 124/195/2
f 122/197/2 76/167/2 77/165/2 123/196/2
f 121/198/2 75/169/2 76/167/2 122/197/2
f 120/199/2 71/171/2 75/169/2 121/198/2
f 117/200/2 71/171/2 120/199/2
f 113/201/2 63/188/2 71/171/2 117/200/2
f 114/202/2 64/187/2 63/188/2 113/201/2
f 115/203/2 65/185/2 64/187/2 114/202/2
f 116/204/2 66/183/2 65/185/2 115/203/2
f 136/205/2 110/181/2 66/183/2 116/204/2
f 135/206/2 109/179/2 110/181/2 136/205/2
f 134/207/2 108/177/2 109/179/2 135/206/2
f 133/208/2 107/175/2 108/177/2 134/207/2
f 132/209/2 106/173/2 107/175/2 133/208/2
f 131/210/2 105/152/2 106/173/2 132/209/2
f 118/134/2 69/133/2 105/152/2 131/210/2
f 151/211/1 94/170/1 73/146/1 140/145/1
f 150/212/1 93/168/1 94/170/1 151/211/1
f 149/213/1 92/166/1 93/168/1 150/212/1
f 148/214/1 91/164/1 92/166/1 149/213/1
f 147/215/1 90/162/1 91/164/1 148/214/1
f 146/216/1 89/160/1 90/162/1 147/215/1
f 145/217/1 88/158/1 89/160/1 146/216/1
f 144/218/1 87/156/1 88/158/1 145/217/1
f 143/219/1 86/154/1 87/156/1 144/218/1
f 142/220/1 85/150/1 86/154/1 143/219/1
f 141/130/1 74/129/1 85/150/1 142/220/1
f 152/148/1 95/147/1 96/186/1 153/221/1
f 161/222/1 104/151/1 72/124/1 139/123/1
f 160/223/1 103/172/1 104/151/1 161/222/1
f 159/224/1 102/174/1 103/172/1 160/223/1
f 158/225/1 101/176/1 102/174/1 159/224/1
f 157/226/1 100/178/1 101/176/1 158/225/1
f 156/227/1 99/180/1 100/178/1 157/226/1
f 155/228/1 98/182/1 99/180/1 156/227/1
f 154/229/1 97/184/1 98/182/1 155/228/1
f 153/221/1 96/186/1 97/184/1 154/229/1
f 166/230/45 111/231/45 118/232/46 173/233/46
f 137/234/45 162/235/45 192/236/45
f 112/237/27 165/238/47 167/122/27
f 173/233/46 118/232/46 131/239/48 186/240/48
f 174/121/28 119/241/28 112/237/27 167/122/27
f 185/242/49 130/243/49 119/241/28 174/121/28
f 184/244/50 129/245/50 130/243/49 185/242/49
f 183/246/51 128/247/51 129/245/50 184/244/50
f 182/248/52 127/249/52 128/247/51 183/246/51
f 181/250/53 126/251/53 127/249/52 182/248/52
f 180/252/54 125/253/54 126/251/53 181/250/53
f 179/254/55 124/255/55 125/253/54 180/252/54
f 178/256/56 123/257/56 124/255/55 179/254/55
f 177/258/57 122/259/57 123/257/56 178/256/56
f 176/118/23 121/260/23 122/259/57 177/258/57
f 175/117/26 120/261/26 121/260/23 176/118/23
f 172/116/24 117/262/24 120/261/26 175/117/26
f 168/115/25 113/263/25 117/262/24 172/116/24
f 169/264/58 114/265/58 113/263/25 168/115/25
f 170/266/59 115/267/59 114/265/58 169/264/58
f 171/268/60 116/269/60 115/267/59 170/266/59
f 191/270/61 136/271/61 116/269/60 171/268/60
f 190/272/62 135/273/62 136/271/61 191/270/61
f 189/274/63 134/275/63 135/273/62 190/272/62
f 188/276/64 133/277/64 134/275/63 189/274/63
f 187/278/65 132/279/65 133/277/64 188/276/64
f 186/240/48 131/239/48 132/279/65 187/278/65
f 206/112/23 151/280/23 140/281/66 195/113/24
f 205/282/57 150/283/57 151/280/23 206/112/23
f 204/284/56 149/285/56 150/283/57 205/282/57
f 203/286/55 148/287/55 149/285/56 204/284/56
f 202/288/54 147/289/54 148/287/55 203/286/55
f 201/290/53 146/291/53 147/289/54 202/288/54
f 200/292/52 145/293/52 146/291/53 201/290/53
f 199/294/51 144/295/51 145/293/52 200/292/52
f 198/296/50 143/297/50 144/295/51 199/294/51
f 197/298/49 142/299/49 143/297/50 198/296/50
f 196/120/28 141/300/28 142/299/49 197/298/49
f 193/119/27 138/301/27 141/300/28 196/120/28
f 195/113/24 140/281/66 152/302/25 207/114/25
f 194/303/46 139/304/46 137/234/45 192/236/45
f 216/305/48 161/306/48 139/304/46 194/303/46
f 215/307/65 160/308/65 161/306/48 216/305/48
f 214/309/64 159/310/64 160/308/65 215/307/65
f 213/311/63 158/312/63 159/310/64 214/309/64
f 212/313/62 157/314/62 158/312/63 213/311/63
f 211/315/61 156/316/61 157/314/62 212/313/62
f 210/317/60 155/318/60 156/316/61 211/315/61
f 209/319/59 154/320/59 155/318/60 210/317/60
f 208/321/58 153/322/58 154/320/59 209/319/59
f 207/114/25 152/302/25 153/322/58 208/321/58
f 111/231/45 166/230/45 163/323/45
f 163/323/45 166/230/45 192/236/45 162/235/45
f 193/119/27 164/324/47 138/301/27
f 167/122/27 165/238/47 164/324/47 193/119/27
f 61/136/2 111/135/2 163/325/2
f 165/326/2 112/140/2 62/139/2
f 166/230/45 173/233/46 194/303/46 192/236/45
f 216/305/48 194/303/46 173/233/46 186/240/48
f 215/307/65 216/305/48 186/240/48 187/278/65
f 187/278/65 188/276/64 214/309/64 215/307/65
f 213/311/63 214/309/64 188/276/64 189/274/63
f 189/274/63 190/272/62 212/313/62 213/311/63
f 211/315/61 212/313/62 190/272/62 191/270/61
f 191/270/61 171/268/60 210/317/60 211/315/61
f 209/319/59 210/317/60 171/268/60 170/266/59
f 170/266/59 169/264/58 208/321/58 209/319/59
f 207/114/25 208/321/58 169/264/58 168/115/25
f 196/120/28 197/298/49 185/242/49 174/121/28
f 176/118/23 177/258/57 205/282/57 206/112/23
f 204/284/56 205/282/57 177/258/57 178/256/56
f 203/286/55 204/284/56 178/256/56 179/254/55
f 202/288/54 203/286/55 179/254/55 180/252/54
f 180/252/54 181/250/53 201/290/53 202/288/54
f 200/292/52 201/290/53 181/250/53 182/248/52
f 182/248/52 183/246/51 199/294/51 200/292/52
f 198/296/50 199/294/51 183/246/51 184/244/50
f 184/244/50 185/242/49 197/298/49 198/296/50
