# Blender v2.91.0 OBJ File: 'Interaktive Visualisierung(2).blend'
# www.blender.org
mtllib trapez.mtl
o Baumhaus_3_2.001_Mesh.037
v 15.355589 5.553730 5.507980
v 15.355589 9.446268 5.507981
v 19.355589 5.553730 5.507980
v 19.355589 9.446268 5.507981
v 19.355589 6.125000 -2.492020
v 19.355589 8.875001 -2.492019
v 15.355589 6.125000 -2.492020
v 15.355589 8.875001 -2.492019
v 15.605589 5.803729 5.507980
v 15.605589 9.196269 5.507981
v 19.105589 5.803729 5.507980
v 19.105589 9.196269 5.507981
v 15.405589 5.579020 5.153829
v 15.605589 9.196269 4.807981
v 19.105589 5.803729 4.807980
v 19.105589 9.196269 4.807981
v 19.105589 6.375000 -2.492020
v 19.105589 8.625001 -2.492020
v 15.605589 6.375000 -2.492020
v 15.605589 8.625001 -2.492020
v 19.105589 6.375000 -1.492020
v 19.105589 8.625000 -1.492020
v 15.605589 6.375000 -1.492020
v 15.605589 8.625000 -1.492020
v 15.555589 9.432023 5.308489
v 19.155588 9.432023 5.308489
v 19.155588 8.889246 -2.292527
v 15.555589 8.889246 -2.292527
v 15.555589 9.282404 5.319173
v 19.155588 9.282404 5.319173
v 19.155588 8.739627 -2.281843
v 15.555589 8.739627 -2.281843
v 15.355589 9.471205 5.506200
v 19.355589 9.471205 5.506200
v 19.355589 8.899938 -2.493800
v 15.355589 8.899938 -2.493800
v 15.555589 9.456959 5.306708
v 19.155588 9.456959 5.306708
v 19.155588 8.914183 -2.294308
v 15.555589 8.914183 -2.294308
v 15.330589 9.448049 5.532917
v 19.380589 9.448049 5.532917
v 19.380589 8.873220 -2.516956
v 15.330589 8.873220 -2.516956
v 15.330589 9.472985 5.531137
v 19.380589 9.472985 5.531137
v 19.380589 8.898156 -2.518736
v 15.330589 8.898156 -2.518736
v 15.580589 9.430242 5.283552
v 19.130589 9.430242 5.283552
v 19.130589 8.891026 -2.267591
v 15.580589 8.891026 -2.267591
v 15.580589 9.455178 5.281772
v 19.130589 9.455178 5.281772
v 19.130589 8.915963 -2.269372
v 15.580589 8.915963 -2.269372
v 17.755589 8.890090 1.507981
v 17.725142 8.879158 1.354907
v 17.638432 8.869892 1.225138
v 17.508663 8.863701 1.138429
v 17.355589 8.861526 1.107981
v 17.202515 8.863701 1.138429
v 17.072746 8.869892 1.225138
v 16.986036 8.879158 1.354907
v 16.955589 8.890090 1.507981
v 16.986036 8.901020 1.661054
v 17.072746 8.910287 1.790823
v 17.202515 8.916479 1.877532
v 17.355589 8.918653 1.907981
v 17.508663 8.916479 1.877532
v 17.638432 8.910287 1.790823
v 17.725142 8.901020 1.661054
v 17.755589 6.063580 1.507980
v 17.725142 6.074511 1.354907
v 17.638432 6.083777 1.225137
v 17.508663 6.089969 1.138428
v 17.355589 6.092144 1.107980
v 17.202515 6.089969 1.138428
v 17.072746 6.083777 1.225137
v 16.986036 6.074511 1.354907
v 16.955589 6.063580 1.507980
v 16.986036 6.052649 1.661054
v 17.072746 6.043382 1.790823
v 17.202515 6.037190 1.877532
v 17.355589 6.035016 1.907980
v 17.508663 6.037190 1.877532
v 17.638432 6.043382 1.790823
v 17.725142 6.052649 1.661054
v 15.605589 9.278843 5.269300
v 19.105589 9.278843 5.269300
v 19.105589 8.743188 -2.231970
v 15.605589 8.743188 -2.231970
v 17.806564 9.010252 1.507981
v 17.772253 8.997935 1.335488
v 17.674522 8.987491 1.189224
v 17.528212 8.980509 1.091462
v 17.355589 8.978058 1.057126
v 17.182966 8.980509 1.091462
v 17.036655 8.987491 1.189224
v 16.938925 8.997935 1.335488
v 16.904613 9.010252 1.507981
v 16.938925 9.022570 1.680473
v 17.036655 9.033014 1.826738
v 17.182966 9.039996 1.924499
v 17.355589 9.042447 1.958836
v 17.528212 9.039996 1.924499
v 17.674522 9.033014 1.826738
v 17.772253 9.022570 1.680473
v 15.405589 5.557291 5.458107
v 19.305590 5.557291 5.458107
v 19.305590 6.121439 -2.442147
v 15.405589 6.121439 -2.442147
v 17.806564 5.839365 1.507980
v 17.772253 5.851683 1.335488
v 17.674522 5.862127 1.189223
v 17.528212 5.869108 1.091462
v 17.355589 5.871560 1.057125
v 17.182966 5.869108 1.091462
v 17.036655 5.862127 1.189223
v 16.938925 5.851683 1.335488
v 16.904613 5.839365 1.507980
v 16.938925 5.827047 1.680473
v 17.036655 5.816603 1.826737
v 17.182966 5.809622 1.924498
v 17.355589 5.807170 1.958835
v 17.528212 5.809622 1.924498
v 17.674522 5.816603 1.826737
v 17.772253 5.827047 1.680473
v 17.755589 9.060125 1.504419
v 17.725142 9.049195 1.351346
v 17.638432 9.039928 1.221577
v 17.508663 9.033736 1.134867
v 17.355589 9.031562 1.104419
v 17.202515 9.033736 1.134867
v 17.072746 9.039928 1.221577
v 16.986036 9.049195 1.351346
v 16.955589 9.060125 1.504419
v 16.986036 9.071056 1.657493
v 17.072746 9.080322 1.787262
v 17.202515 9.086514 1.873971
v 17.355589 9.088689 1.904419
v 17.508663 9.086514 1.873971
v 17.638432 9.080322 1.787262
v 17.725142 9.071056 1.657493
v 17.806564 9.060125 1.504419
v 17.772253 9.047809 1.331927
v 17.674522 9.037364 1.185662
v 17.528212 9.030382 1.087901
v 17.355589 9.027931 1.053564
v 17.182966 9.030382 1.087901
v 17.036655 9.037364 1.185662
v 16.938925 9.047809 1.331927
v 16.904613 9.060125 1.504419
v 16.938925 9.072443 1.676912
v 17.036655 9.082888 1.823176
v 17.182966 9.089869 1.920937
v 17.355589 9.092320 1.955274
v 17.528212 9.089869 1.920937
v 17.674522 9.082888 1.823176
v 17.772253 9.072443 1.676912
v 17.755589 5.789492 1.504419
v 17.725142 5.800423 1.351345
v 17.638432 5.809690 1.221576
v 17.508663 5.815881 1.134867
v 17.355589 5.818056 1.104419
v 17.202515 5.815881 1.134867
v 17.072746 5.809690 1.221576
v 16.986036 5.800423 1.351345
v 16.955589 5.789492 1.504419
v 16.986036 5.778561 1.657492
v 17.072746 5.769295 1.787261
v 17.202515 5.763103 1.873971
v 17.355589 5.760929 1.904419
v 17.508663 5.763103 1.873971
v 17.638432 5.769295 1.787261
v 17.725142 5.778561 1.657492
v 17.806564 5.789492 1.504419
v 17.772253 5.801810 1.331926
v 17.674522 5.812254 1.185662
v 17.528212 5.819235 1.087901
v 17.355589 5.821687 1.053564
v 17.182966 5.819235 1.087901
v 17.036655 5.812254 1.185662
v 16.938925 5.801810 1.331926
v 16.904613 5.789492 1.504419
v 16.938925 5.777174 1.676911
v 17.036655 5.766730 1.823176
v 17.182966 5.759749 1.920937
v 17.355589 5.757297 1.955274
v 17.528212 5.759749 1.920937
v 17.674522 5.766730 1.823176
v 17.772253 5.777174 1.676911
v 19.305590 5.604948 4.790732
v 19.355589 5.596658 4.906825
v 15.405589 5.579020 5.153829
vt 0.255655 0.554102
vt 0.465403 1.000000
vt 0.000000 1.000000
vt 0.232702 0.558680
vt 0.292668 0.498576
vt 0.465403 0.000000
vt 0.232702 0.438471
vt 0.209748 0.443049
vt 0.000001 0.000000
vt 0.177297 0.521571
vt 0.209747 0.554102
vt 0.190292 0.541070
vt 0.172734 0.498576
vt 0.177297 0.475580
vt 0.190292 0.456081
vt 0.255655 0.443049
vt 0.275110 0.456081
vt 0.288106 0.475580
vt 0.288106 0.521571
vt 0.275111 0.541070
vt 0.208099 0.952572
vt 0.136610 0.789275
vt 0.132115 0.796019
vt 0.125394 0.800514
vt 0.117471 0.802110
vt 0.109548 0.800537
vt 0.102827 0.796041
vt 0.098332 0.789321
vt 0.016256 0.971116
vt 0.839624 0.540695
vt 0.814315 0.186499
vt 0.682644 0.186499
vt 0.655311 0.569488
vt 0.841647 0.569488
vt 0.136599 0.773384
vt 0.138184 0.781341
vt 0.208178 0.625372
vt 0.132115 0.766663
vt 0.611872 0.966664
vt 0.611872 0.981274
vt 0.614265 0.983656
vt 0.614265 0.599701
vt 0.611872 0.602083
vt 0.096758 0.781386
vt 0.098332 0.773429
vt 0.026932 0.625574
vt 0.102816 0.766686
vt 0.109537 0.762190
vt 0.117460 0.760595
vt 0.125394 0.762168
vt 0.022942 0.171963
vt 0.098937 0.313187
vt 0.105658 0.308692
vt 0.113593 0.307118
vt 0.121516 0.308692
vt 0.128248 0.313187
vt 0.204243 0.171963
vt 0.132732 0.319930
vt 0.134316 0.327888
vt 0.132732 0.335822
vt 0.128248 0.342565
vt 0.204243 0.499433
vt 0.105658 0.347060
vt 0.098937 0.342565
vt 0.094453 0.335822
vt 0.092868 0.327888
vt 0.094453 0.319930
vt 0.022942 0.499433
vt 0.121516 0.347060
vt 0.113593 0.348656
vt 0.425165 0.949244
vt 0.425165 0.981274
vt 0.498575 0.783407
vt 0.425165 0.602083
vt 0.496923 0.791679
vt 0.518513 0.770033
vt 0.526784 0.771697
vt 0.538461 0.783407
vt 0.540102 0.791679
vt 0.526784 0.811683
vt 0.518513 0.813324
vt 0.533786 0.806986
vt 0.538461 0.799951
vt 0.533786 0.776372
vt 0.510252 0.771697
vt 0.503251 0.776372
vt 0.498575 0.799951
vt 0.503251 0.806986
vt 0.510252 0.811683
vt 0.208077 0.573607
vt 0.026831 0.573809
vt 0.263765 0.937495
vt 0.263855 0.989215
vt 0.380377 0.989215
vt 0.380287 0.937495
vt 0.654572 0.979439
vt 0.840908 0.979439
vt 0.813576 0.596450
vt 0.681904 0.596450
vt 0.722184 0.147656
vt 0.721354 0.148477
vt 0.721138 0.027325
vt 0.722013 0.028166
vt 0.722468 0.028588
vt 0.722502 0.028582
vt 0.722589 0.147279
vt 0.722598 0.147256
vt 0.975091 0.027304
vt 0.974261 0.028125
vt 0.973848 0.028525
vt 0.973856 0.028502
vt 0.975307 0.148454
vt 0.974433 0.147613
vt 0.973978 0.147193
vt 0.973944 0.147199
vt 0.713525 0.019783
vt 0.714398 0.020628
vt 0.714669 0.155167
vt 0.713840 0.155991
vt 0.713424 0.156399
vt 0.713421 0.156390
vt 0.713067 0.019369
vt 0.713068 0.019358
vt 0.982605 0.019790
vt 0.981776 0.020615
vt 0.983024 0.019396
vt 0.983021 0.019387
vt 0.982921 0.155995
vt 0.982048 0.155151
vt 0.983337 0.156389
vt 0.983337 0.156399
vt 0.410812 0.026654
vt 0.404514 0.026654
vt 0.404514 0.178526
vt 0.410812 0.178526
vt 0.888036 0.959461
vt 0.903048 0.959461
vt 0.903048 0.198092
vt 0.888036 0.198092
vt 0.404514 0.026654
vt 0.398215 0.026654
vt 0.398215 0.178526
vt 0.404514 0.178526
vt 0.903048 0.959461
vt 0.918060 0.959461
vt 0.918060 0.198092
vt 0.903048 0.198092
vt 0.204243 0.120243
vt 0.022942 0.120243
vt 0.375509 0.175897
vt 0.375509 0.124087
vt 0.258942 0.124087
vt 0.258942 0.175897
vt 0.537341 0.167979
vt 0.526803 0.178526
vt 0.691006 0.178526
vt 0.680468 0.167979
vt 0.537341 0.020326
vt 0.526803 0.009779
vt 0.680468 0.020326
vt 0.691006 0.009779
vt 0.409462 0.611665
vt 0.409417 0.575454
vt 0.233736 0.575454
vt 0.221868 0.594335
vt 0.022942 0.535622
vt 0.204243 0.535644
vt 0.229362 0.502221
vt 0.229362 0.538476
vt 0.405089 0.538476
vt 0.405089 0.502221
vt 0.026932 0.989008
vt 0.208178 0.988805
vt 0.421350 0.167979
vt 0.410812 0.178526
vt 0.526803 0.178526
vt 0.516266 0.167979
vt 0.421350 0.020326
vt 0.410812 0.009779
vt 0.516266 0.020326
vt 0.526803 0.009779
vt 0.446701 0.553413
vt 0.444307 0.555795
vt 0.616651 0.555795
vt 0.614258 0.553413
vt 0.446701 0.193373
vt 0.444307 0.190990
vt 0.614258 0.193373
vt 0.616651 0.190990
vt 0.977660 0.201845
vt 0.972665 0.196873
vt 0.972665 0.958241
vt 0.977660 0.953269
vt 0.824694 0.114707
vt 0.820583 0.111741
vt 0.826673 0.097647
vt 0.831839 0.098907
vt 0.812006 0.126753
vt 0.809294 0.122414
vt 0.795486 0.133267
vt 0.794550 0.128190
vt 0.777606 0.133216
vt 0.778504 0.128301
vt 0.760462 0.126936
vt 0.763262 0.122342
vt 0.746403 0.114219
vt 0.750908 0.110912
vt 0.738116 0.096392
vt 0.743777 0.095146
vt 0.737894 0.076004
vt 0.743786 0.077442
vt 0.747468 0.058009
vt 0.751927 0.061724
vt 0.763037 0.045975
vt 0.765523 0.050989
vt 0.781386 0.041133
vt 0.781764 0.046508
vt 0.799517 0.043428
vt 0.798059 0.048206
vt 0.815413 0.051637
vt 0.812246 0.055710
vt 0.827070 0.065042
vt 0.822668 0.067642
vt 0.832770 0.081590
vt 0.827754 0.082329
vt 0.422771 0.983656
vt 0.422771 0.599701
vt 0.422771 0.954818
vt 0.922142 0.048969
vt 0.919210 0.053048
vt 0.905249 0.046967
vt 0.906545 0.041862
vt 0.934149 0.061434
vt 0.929867 0.064163
vt 0.940804 0.077778
vt 0.935751 0.078758
vt 0.940922 0.095664
vt 0.935986 0.094785
vt 0.934649 0.112971
vt 0.930007 0.110137
vt 0.921722 0.127223
vt 0.918385 0.122634
vt 0.903528 0.135539
vt 0.902308 0.129777
vt 0.882817 0.135526
vt 0.884345 0.129550
vt 0.864638 0.125612
vt 0.868464 0.121134
vt 0.852628 0.109628
vt 0.857747 0.107183
vt 0.848026 0.090955
vt 0.853457 0.090667
vt 0.850709 0.072749
vt 0.855466 0.074316
vt 0.859325 0.057074
vt 0.863298 0.060333
vt 0.872960 0.045885
vt 0.875420 0.050313
vt 0.889457 0.040671
vt 0.890087 0.045646
vt 0.809105 0.103755
vt 0.813590 0.094454
vt 0.837101 0.100297
vt 0.829079 0.117963
vt 0.801268 0.110487
vt 0.814878 0.131466
vt 0.791276 0.113950
vt 0.796425 0.138756
vt 0.780611 0.113458
vt 0.776519 0.138756
vt 0.770762 0.109220
vt 0.757352 0.131860
vt 0.763296 0.101570
vt 0.741436 0.117737
vt 0.759380 0.091739
vt 0.731877 0.097644
vt 0.759737 0.081345
vt 0.731606 0.074305
vt 0.764220 0.071947
vt 0.742667 0.053814
vt 0.772180 0.064978
vt 0.760453 0.040451
vt 0.782405 0.061689
vt 0.781108 0.035298
vt 0.793147 0.062336
vt 0.801297 0.038055
vt 0.802773 0.066921
vt 0.818954 0.047326
vt 0.810063 0.074503
vt 0.831915 0.062368
vt 0.813875 0.084141
vt 0.838202 0.080936
vt 0.907521 0.069659
vt 0.900373 0.066143
vt 0.907964 0.036687
vt 0.925343 0.044634
vt 0.912612 0.075727
vt 0.938789 0.058548
vt 0.915077 0.083391
vt 0.946265 0.076786
vt 0.914459 0.091466
vt 0.946494 0.096722
vt 0.911020 0.098807
vt 0.939635 0.116116
vt 0.905110 0.104217
vt 0.925276 0.132290
vt 0.897782 0.106931
vt 0.904743 0.141895
vt 0.890288 0.106677
vt 0.881020 0.141895
vt 0.883405 0.103422
vt 0.860313 0.130435
vt 0.878214 0.097484
vt 0.846979 0.112161
vt 0.875639 0.089770
vt 0.842123 0.091122
vt 0.876006 0.081608
vt 0.845357 0.070832
vt 0.879394 0.074283
vt 0.855126 0.053426
vt 0.885100 0.068754
vt 0.870443 0.041015
vt 0.892459 0.065867
vt 0.888923 0.035298
vn -0.0000 0.9975 -0.0712
vn -0.0055 0.9962 0.0869
vn -0.0008 0.9969 0.0789
vn 0.0055 0.9971 0.0765
vn 0.0028 0.9970 0.0779
vn -0.0148 0.9949 0.0997
vn -0.0322 0.9922 0.1206
vn -0.0450 0.9924 0.1147
vn -0.0611 0.9924 0.1065
vn -0.0466 0.9924 0.1136
vn 1.0000 -0.0000 0.0000
vn -0.0396 0.9955 0.0859
vn -0.0291 0.9963 0.0815
vn -0.0155 0.9967 0.0801
vn -0.0235 0.9953 0.0940
vn -0.0000 -0.9975 -0.0712
vn -0.0079 0.9957 0.0927
vn 0.0396 0.9955 0.0859
vn 0.0058 0.9968 0.0799
vn 0.0235 0.9953 0.0940
vn 0.0104 0.9948 0.1016
vn -0.0016 0.9945 0.1049
vn -0.0120 0.9949 0.1005
vn -0.0046 -0.9974 0.0721
vn -0.0123 -0.9965 0.0832
vn -0.0063 -0.9962 0.0866
vn -0.0008 -0.9960 0.0890
vn 0.0054 -0.9962 0.0872
vn 0.0123 -0.9965 0.0832
vn 0.0054 -0.9976 0.0694
vn 0.0208 -0.9967 0.0789
vn 0.0030 -0.9968 0.0803
vn -0.0201 -0.9962 0.0844
vn -0.0160 -0.9961 0.0867
vn -0.0090 -0.9972 0.0741
vn 0.0070 -0.9958 0.0913
vn 0.0160 -0.9961 0.0867
vn 0.0201 -0.9962 0.0844
vn -0.0030 -0.9968 0.0803
vn -0.0208 -0.9967 0.0789
vn 0.0108 -0.9975 0.0704
vn -0.0080 -0.9958 0.0907
vn -0.0011 -0.9956 0.0934
vn 0.0000 1.0000 0.0000
vn 0.9999 -0.0137 0.0088
vn -1.0000 -0.0000 0.0000
vn 0.0000 -0.9975 0.0712
vn 0.0000 -0.0712 -0.9975
vn 0.0000 0.0712 0.9975
vn -1.0000 -0.0001 0.0000
vn 0.0000 -1.0000 -0.0000
vn 0.0000 -0.0000 1.0000
vn 0.9667 -0.0285 -0.2543
vn 0.9667 -0.0286 -0.2543
vn -0.0510 0.9655 -0.2552
vn -0.0511 0.9655 -0.2552
vn 0.0000 0.0000 -1.0000
vn -0.1953 -0.0205 -0.9805
vn 0.1956 0.0698 0.9782
vn -0.5561 -0.0174 -0.8310
vn 0.5565 0.0592 0.8287
vn -0.8318 -0.0116 -0.5550
vn 0.8321 0.0395 0.5532
vn -0.9808 -0.0041 -0.1948
vn 0.9809 0.0139 0.1941
vn -0.9808 0.0041 0.1948
vn 0.9809 -0.0139 -0.1941
vn -0.8318 0.0116 0.5550
vn 0.8321 -0.0395 -0.5532
vn -0.5561 0.0174 0.8310
vn 0.5565 -0.0592 -0.8287
vn -0.1953 0.0205 0.9805
vn 0.1956 -0.0699 -0.9782
vn 0.1953 0.0205 0.9805
vn -0.1956 -0.0699 -0.9782
vn 0.5561 0.0174 0.8310
vn -0.5565 -0.0592 -0.8287
vn 0.8318 0.0116 0.5550
vn -0.8321 -0.0395 -0.5532
vn 0.9808 0.0041 0.1948
vn -0.9809 -0.0139 -0.1941
vn 0.9808 -0.0041 -0.1948
vn -0.9809 0.0139 0.1941
vn 0.8318 -0.0116 -0.5550
vn -0.8321 0.0395 0.5532
vn 0.5561 -0.0174 -0.8310
vn -0.5565 0.0592 0.8287
vn 0.1953 -0.0205 -0.9805
vn -0.1956 0.0699 0.9782
vn 0.1952 0.0127 -0.9807
vn -0.1956 -0.0698 0.9782
vn 0.5559 0.0108 -0.8312
vn -0.5565 -0.0592 0.8287
vn 0.8317 0.0072 -0.5552
vn -0.8321 -0.0395 0.5532
vn 0.9808 0.0025 -0.1949
vn -0.9809 -0.0139 0.1941
vn 0.9808 -0.0025 0.1949
vn -0.9809 0.0139 -0.1941
vn 0.8317 -0.0072 0.5552
vn -0.8321 0.0395 -0.5532
vn 0.5559 -0.0108 0.8312
vn -0.5565 0.0592 -0.8287
vn 0.1952 -0.0127 0.9807
vn -0.1956 0.0699 -0.9782
vn -0.1952 -0.0127 0.9807
vn 0.1956 0.0699 -0.9782
vn -0.5559 -0.0108 0.8312
vn 0.5565 0.0592 -0.8287
vn -0.8317 -0.0072 0.5552
vn 0.8321 0.0395 -0.5532
vn -0.9808 -0.0025 0.1949
vn 0.9809 0.0139 -0.1941
vn -0.9808 0.0025 -0.1949
vn 0.9809 -0.0139 0.1941
vn -0.8317 0.0072 -0.5552
vn 0.8321 -0.0395 0.5532
vn -0.5559 0.0108 -0.8312
vn 0.5565 -0.0592 0.8287
vn -0.1952 0.0127 -0.9807
vn 0.1956 -0.0699 0.9782
vn 0.9995 -0.0274 0.0175
usemtl Kies
s 1
f 104/1/1 89/2/1 90/3/1 105/4/1
f 101/5/1 92/6/1 89/2/1
f 92/6/1 97/7/1 96/8/1 91/9/1
f 108/10/1 90/3/1 91/9/1
f 106/11/1 105/4/1 90/3/1
f 107/12/1 106/11/1 90/3/1
f 108/10/1 107/12/1 90/3/1
f 93/13/1 108/10/1 91/9/1
f 91/9/1 94/14/1 93/13/1
f 91/9/1 95/15/1 94/14/1
f 91/9/1 96/8/1 95/15/1
f 92/6/1 98/16/1 97/7/1
f 92/6/1 99/17/1 98/16/1
f 92/6/1 100/18/1 99/17/1
f 92/6/1 101/5/1 100/18/1
f 102/19/1 101/5/1 89/2/1
f 103/20/1 102/19/1 89/2/1
f 104/1/1 103/20/1 89/2/1
usemtl Holz_-_Fassade_
f 15/21/2 88/22/3 87/23/4 86/24/5 85/25/6 84/26/7 83/27/8 82/28/9 13/29/10
f 194/30/11 5/31/11 6/32/11 4/33/11 3/34/11
f 74/35/12 73/36/13 88/22/3 15/21/2 21/37/14 75/38/15
f 195/39/16 109/40/16 1/41/16 7/42/16 112/43/16
f 13/29/10 82/28/9 81/44/17 80/45/18 23/46/19
f 23/46/19 80/45/18 79/47/20 78/48/21 77/49/22 76/50/23 75/38/15 21/37/14
f 22/51/24 59/52/25 60/53/26 61/54/27 62/55/28 63/56/29 24/57/30
f 24/57/30 63/56/29 64/58/31 65/59/32 66/60/33 67/61/34 14/62/35
f 70/63/36 71/64/37 72/65/38 57/66/39 58/67/40 59/52/25 22/51/24 16/68/41 14/62/35 67/61/34 68/69/42 69/70/43
f 109/40/16 195/39/16 193/71/16 110/72/16
f 114/73/16 111/74/16 193/71/16 113/75/16
f 111/74/16 117/76/16 118/77/16 112/43/16
f 195/39/16 112/43/16 120/78/16 121/79/16
f 193/71/16 195/39/16 124/80/16 125/81/16
f 123/82/16 124/80/16 195/39/16
f 122/83/16 123/82/16 195/39/16
f 121/79/16 122/83/16 195/39/16
f 112/43/16 119/84/16 120/78/16
f 112/43/16 118/77/16 119/84/16
f 111/74/16 116/85/16 117/76/16
f 111/74/16 115/86/16 116/85/16
f 111/74/16 114/73/16 115/86/16
f 128/87/16 113/75/16 193/71/16
f 127/88/16 128/87/16 193/71/16
f 126/89/16 127/88/16 193/71/16
f 125/81/16 126/89/16 193/71/16
f 21/37/14 17/90/44 19/91/44 23/46/19
f 23/92/45 19/93/11 20/94/11 24/95/45
f 1/96/46 2/97/46 8/98/46 7/99/46
f 53/100/1 37/101/1 38/102/1 54/103/1
f 50/104/47 26/105/47 25/106/47 49/107/47
f 54/103/1 38/102/1 39/108/1 55/109/1
f 51/110/47 27/111/47 26/105/47 50/104/47
f 55/109/1 39/108/1 40/112/1 56/113/1
f 52/114/47 28/115/47 27/111/47 51/110/47
f 56/113/1 40/112/1 37/101/1 53/100/1
f 49/107/47 25/106/47 28/115/47 52/114/47
f 46/116/1 34/117/1 33/118/1 45/119/1
f 41/120/47 2/121/47 4/122/47 42/123/47
f 47/124/1 35/125/1 34/117/1 46/116/1
f 42/123/47 4/122/47 6/126/47 43/127/47
f 48/128/1 36/129/1 35/125/1 47/124/1
f 43/127/47 6/126/47 8/130/47 44/131/47
f 45/119/1 33/118/1 36/129/1 48/128/1
f 44/131/47 8/130/47 2/121/47 41/120/47
f 54/103/48 50/104/48 49/107/48 53/100/48
f 45/119/49 41/120/49 42/123/49 46/116/49
f 55/109/50 51/110/50 50/104/50 54/103/50
f 46/116/11 42/123/11 43/127/11 47/124/11
f 56/113/49 52/114/49 51/110/49 55/109/49
f 47/124/48 43/127/48 44/131/48 48/128/48
f 53/100/11 49/107/11 52/114/11 56/113/11
f 48/128/46 44/131/46 41/120/46 45/119/46
f 29/132/48 25/133/48 26/134/48 30/135/48
f 30/136/46 26/137/46 27/138/46 31/139/46
f 31/140/49 27/141/49 28/142/49 32/143/49
f 32/144/11 28/145/11 25/146/11 29/147/11
f 37/101/1 33/118/1 34/117/1 38/102/1
f 38/102/1 34/117/1 35/125/1 39/108/1
f 39/108/1 35/125/1 36/129/1 40/112/1
f 40/112/1 36/129/1 33/118/1 37/101/1
f 24/57/30 20/148/51 18/149/51 22/51/24
f 22/150/46 18/151/46 17/152/46 21/153/46
f 10/154/52 2/155/52 1/156/52 9/157/52
f 12/158/52 4/159/52 2/155/52 10/154/52
f 11/160/52 3/161/52 4/159/52 12/158/52
f 9/157/52 1/156/52 3/161/52 11/160/52
f 14/162/53 10/163/53 9/164/54 13/165/54
f 16/68/41 12/166/51 10/167/51 14/62/35
f 15/168/46 11/169/46 12/170/46 16/171/46
f 13/29/55 9/172/55 11/173/55 15/21/56
f 18/174/57 6/175/57 5/176/57 17/177/57
f 20/178/57 8/179/57 6/175/57 18/174/57
f 19/180/57 7/181/57 8/179/57 20/178/57
f 17/177/57 5/176/57 7/181/57 19/180/57
f 89/182/1 29/183/1 30/184/1 90/185/1
f 92/186/1 32/187/1 29/183/1 89/182/1
f 91/188/1 31/189/1 32/187/1 92/186/1
f 90/190/1 30/191/1 31/192/1 91/193/1
f 158/194/1 142/195/1 141/196/1 157/197/1
f 159/198/1 143/199/1 142/195/1 158/194/1
f 160/200/1 144/201/1 143/199/1 159/198/1
f 145/202/1 129/203/1 144/201/1 160/200/1
f 146/204/1 130/205/1 129/203/1 145/202/1
f 147/206/1 131/207/1 130/205/1 146/204/1
f 148/208/1 132/209/1 131/207/1 147/206/1
f 149/210/1 133/211/1 132/209/1 148/208/1
f 150/212/1 134/213/1 133/211/1 149/210/1
f 151/214/1 135/215/1 134/213/1 150/212/1
f 152/216/1 136/217/1 135/215/1 151/214/1
f 153/218/1 137/219/1 136/217/1 152/216/1
f 154/220/1 138/221/1 137/219/1 153/218/1
f 155/222/1 139/223/1 138/221/1 154/220/1
f 156/224/1 140/225/1 139/223/1 155/222/1
f 157/197/1 141/196/1 140/225/1 156/224/1
f 110/72/16 3/226/16 1/41/16 109/40/16
f 111/74/16 5/227/16 194/228/16 193/71/16
f 112/43/16 7/42/16 5/227/16 111/74/16
f 188/229/16 172/230/16 173/231/16 189/232/16
f 187/233/16 171/234/16 172/230/16 188/229/16
f 186/235/16 170/236/16 171/234/16 187/233/16
f 185/237/16 169/238/16 170/236/16 186/235/16
f 184/239/16 168/240/16 169/238/16 185/237/16
f 183/241/16 167/242/16 168/240/16 184/239/16
f 182/243/16 166/244/16 167/242/16 183/241/16
f 181/245/16 165/246/16 166/244/16 182/243/16
f 180/247/16 164/248/16 165/246/16 181/245/16
f 179/249/16 163/250/16 164/248/16 180/247/16
f 178/251/16 162/252/16 163/250/16 179/249/16
f 177/253/16 161/254/16 162/252/16 178/251/16
f 192/255/16 176/256/16 161/254/16 177/253/16
f 191/257/16 175/258/16 176/256/16 192/255/16
f 190/259/16 174/260/16 175/258/16 191/257/16
f 189/232/16 173/231/16 174/260/16 190/259/16
f 142/195/58 70/261/58 69/262/58 141/196/58
f 157/197/59 105/263/59 106/264/59 158/194/59
f 143/199/60 71/265/60 70/261/60 142/195/60
f 158/194/61 106/264/61 107/266/61 159/198/61
f 144/201/62 72/267/62 71/265/62 143/199/62
f 159/198/63 107/266/63 108/268/63 160/200/63
f 129/203/64 57/269/64 72/267/64 144/201/64
f 160/200/65 108/268/65 93/270/65 145/202/65
f 130/205/66 58/271/66 57/269/66 129/203/66
f 145/202/67 93/270/67 94/272/67 146/204/67
f 131/207/68 59/273/68 58/271/68 130/205/68
f 146/204/69 94/272/69 95/274/69 147/206/69
f 132/209/70 60/275/70 59/273/70 131/207/70
f 147/206/71 95/274/71 96/276/71 148/208/71
f 133/211/72 61/277/72 60/275/72 132/209/72
f 148/208/73 96/276/73 97/278/73 149/210/73
f 134/213/74 62/279/74 61/277/74 133/211/74
f 149/210/75 97/278/75 98/280/75 150/212/75
f 135/215/76 63/281/76 62/279/76 134/213/76
f 150/212/77 98/280/77 99/282/77 151/214/77
f 136/217/78 64/283/78 63/281/78 135/215/78
f 151/214/79 99/282/79 100/284/79 152/216/79
f 137/219/80 65/285/80 64/283/80 136/217/80
f 152/216/81 100/284/81 101/286/81 153/218/81
f 138/221/82 66/287/82 65/285/82 137/219/82
f 153/218/83 101/286/83 102/288/83 154/220/83
f 139/223/84 67/289/84 66/287/84 138/221/84
f 154/220/85 102/288/85 103/290/85 155/222/85
f 140/225/86 68/291/86 67/289/86 139/223/86
f 155/222/87 103/290/87 104/292/87 156/224/87
f 141/196/88 69/262/88 68/291/88 140/225/88
f 156/224/89 104/292/89 105/263/89 157/197/89
f 172/230/90 84/293/90 85/294/90 173/231/90
f 189/232/91 125/295/91 124/296/91 188/229/91
f 171/234/92 83/297/92 84/293/92 172/230/92
f 188/229/93 124/296/93 123/298/93 187/233/93
f 170/236/94 82/299/94 83/297/94 171/234/94
f 187/233/95 123/298/95 122/300/95 186/235/95
f 169/238/96 81/301/96 82/299/96 170/236/96
f 186/235/97 122/300/97 121/302/97 185/237/97
f 168/240/98 80/303/98 81/301/98 169/238/98
f 185/237/99 121/302/99 120/304/99 184/239/99
f 167/242/100 79/305/100 80/303/100 168/240/100
f 184/239/101 120/304/101 119/306/101 183/241/101
f 166/244/102 78/307/102 79/305/102 167/242/102
f 183/241/103 119/306/103 118/308/103 182/243/103
f 165/246/104 77/309/104 78/307/104 166/244/104
f 182/243/105 118/308/105 117/310/105 181/245/105
f 164/248/106 76/311/106 77/309/106 165/246/106
f 181/245/107 117/310/107 116/312/107 180/247/107
f 163/250/108 75/313/108 76/311/108 164/248/108
f 180/247/109 116/312/109 115/314/109 179/249/109
f 162/252/110 74/315/110 75/313/110 163/250/110
f 179/249/111 115/314/111 114/316/111 178/251/111
f 161/254/112 73/317/112 74/315/112 162/252/112
f 178/251/113 114/316/113 113/318/113 177/253/113
f 176/256/114 88/319/114 73/317/114 161/254/114
f 177/253/115 113/318/115 128/320/115 192/255/115
f 175/258/116 87/321/116 88/319/116 176/256/116
f 192/255/117 128/320/117 127/322/117 191/257/117
f 174/260/118 86/323/118 87/321/118 175/258/118
f 191/257/119 127/322/119 126/324/119 190/259/119
f 173/231/120 85/294/120 86/323/120 174/260/120
f 190/259/121 126/324/121 125/295/121 189/232/121
f 23/92/45 24/95/45 14/162/122 13/165/122
f 15/168/46 16/171/46 22/150/46 21/153/46
f 193/71/16 194/228/16 3/226/16 110/72/16
